<svg width="526" height="352" viewBox="0 0 526 352" fill="none" xmlns="http://www.w3.org/2000/svg">
<g clip-path="url(#clip0_16_86)">
<path d="M525.168 187.083C525.168 258.282 480.04 318.947 416.832 342.03C407.217 345.549 397.291 348.154 387.187 349.811C359.39 354.37 330.89 351.782 304.369 342.29C240.76 319.396 195.303 258.527 195.333 187.048C195.333 96.0033 269.171 22.1653 360.25 22.1653C394.672 22.1152 428.239 32.8841 456.207 52.9499C497.961 82.8649 525.168 131.795 525.168 187.083Z" fill="#E5E5E5"/>
<path d="M416.832 342.03C407.217 345.548 397.291 348.154 387.187 349.811C359.39 354.37 330.89 351.782 304.369 342.29L311.985 311.73L312.444 309.896L327.987 309.956L406.068 310.236L407.067 313.189L416.832 342.03Z" fill="#2F2E41"/>
<path d="M143.254 0H0V162.096H143.254V0Z" fill="#E6E6E6"/>
<path d="M140.449 3.42929H2.5542V158.667H140.449V3.42929Z" fill="white"/>
<path d="M71.6271 153.148C75.8961 153.148 79.3568 149.687 79.3568 145.418C79.3568 141.149 75.8961 137.689 71.6271 137.689C67.3582 137.689 63.8975 141.149 63.8975 145.418C63.8975 149.687 67.3582 153.148 71.6271 153.148Z" fill="#E6E6E6"/>
<path d="M70.3213 58.3802H25.925V62.922H70.3213V58.3802Z" fill="#E6E6E6"/>
<path d="M92.931 71.9899H25.925V76.5317H92.931V71.9899Z" fill="#F0E7E7"/>
<path d="M86.3538 85.6851H25.925V90.2268H86.3538V85.6851Z" fill="#E6E6E6"/>
<path d="M119.24 99.0184H25.925V103.56H119.24V99.0184Z" fill="#F0E7E7"/>
<path d="M102.944 111.717H26.895V116.258H102.944V111.717Z" fill="#E6E6E6"/>
<path d="M203.702 263.763C204.247 264.323 204.747 264.924 205.197 265.562L275.217 263.849L283.385 248.923L307.523 258.306L295.629 286.136C294.668 288.384 293.004 290.26 290.886 291.482C288.769 292.704 286.312 293.206 283.885 292.913L204.774 283.356C202.908 285.718 200.367 287.457 197.489 288.34C194.611 289.223 191.532 289.208 188.662 288.299C185.792 287.389 183.267 285.628 181.423 283.248C179.579 280.869 178.503 277.984 178.338 274.978C178.173 271.972 178.927 268.987 180.501 266.42C182.074 263.853 184.391 261.826 187.144 260.608C189.897 259.391 192.956 259.04 195.913 259.603C198.871 260.166 201.587 261.616 203.7 263.76L203.702 263.763Z" fill="#9F616A"/>
<path d="M297.945 178.531L330.713 167.792L340.337 154.593L387.172 157.365L394.048 172.767L419.021 184.567L415.183 255.844L408.618 322.549C374.856 305.066 311.847 318.395 311.295 318.612L297.945 178.531Z" fill="#F0E7E7"/>
<path d="M304.95 275.007L271.62 261.672L271.762 261.079C271.905 260.479 286.091 201.2 287.974 191.674C289.936 181.75 297.105 179.006 297.409 178.894L297.632 178.812L310.822 182.827L316.615 228.345L304.95 275.007Z" fill="#F0E7E7"/>
<path d="M376.917 319.617C377.698 319.598 378.479 319.641 379.254 319.746L425.604 267.236L420.213 251.101L443.505 239.781L455.827 267.423C456.822 269.656 457.066 272.152 456.522 274.536C455.979 276.92 454.676 279.063 452.811 280.643L392.017 332.154C392.48 335.128 392.026 338.174 390.717 340.884C389.407 343.595 387.303 345.843 384.685 347.328C382.067 348.814 379.058 349.468 376.059 349.202C373.061 348.936 370.214 347.764 367.898 345.841C365.582 343.918 363.906 341.335 363.093 338.436C362.281 335.538 362.37 332.46 363.349 329.613C364.328 326.767 366.151 324.285 368.574 322.5C370.998 320.714 373.908 319.708 376.917 319.617Z" fill="#9F616A"/>
<path d="M421.905 272.347L402.57 226.867L410.111 195.187L418.236 184.922C418.831 184.668 419.473 184.539 420.12 184.545C420.767 184.551 421.406 184.692 421.996 184.957C424.995 186.163 427.544 189.86 429.581 195.944L447.702 247.557L421.905 272.347Z" fill="#F0E7E7"/>
<path d="M321.59 137.74V103.452C321.57 97.4188 322.739 91.4403 325.03 85.8582C327.32 80.2762 330.688 75.1999 334.94 70.9193C339.192 66.6388 344.246 63.2376 349.813 60.9102C355.38 58.5827 361.35 57.3745 367.384 57.3545C373.418 57.3345 379.396 58.5032 384.978 60.7937C390.56 63.0842 395.636 66.4518 399.917 70.7041C404.198 74.9564 407.599 80.0102 409.926 85.577C412.254 91.1437 413.462 97.1144 413.482 103.148C413.482 103.25 413.482 103.351 413.482 103.452V137.74C413.48 139.377 412.829 140.945 411.672 142.102C410.515 143.259 408.946 143.91 407.31 143.912H327.762C326.126 143.91 324.557 143.259 323.4 142.102C322.243 140.945 321.592 139.377 321.59 137.74Z" fill="#2F2E41"/>
<path d="M358.094 143.113C376.699 143.113 391.78 128.032 391.78 109.428C391.78 90.8236 376.699 75.7421 358.094 75.7421C339.49 75.7421 324.409 90.8236 324.409 109.428C324.409 128.032 339.49 143.113 358.094 143.113Z" fill="#9F616A"/>
<path d="M310.721 106.196C310.732 96.5595 314.564 87.3213 321.378 80.5075C328.192 73.6938 337.43 69.8611 347.066 69.8503H353.924C363.56 69.8611 372.798 73.6938 379.612 80.5076C386.426 87.3213 390.258 96.5596 390.269 106.196V106.881H375.776L370.833 93.0382L369.845 106.881H362.355L359.862 99.8977L359.362 106.881H310.721V106.196Z" fill="#2F2E41"/>
<path d="M354.78 147.768C354.099 146.847 353.693 145.752 353.607 144.61C353.522 143.468 353.761 142.325 354.296 141.312C361.563 127.49 371.738 101.95 358.233 86.1985L357.264 85.0681H396.473V143.934L360.855 150.218C360.495 150.282 360.129 150.314 359.763 150.314C358.791 150.314 357.832 150.084 356.966 149.641C356.101 149.199 355.352 148.558 354.782 147.77L354.78 147.768Z" fill="#2F2E41"/>
<path d="M71.5025 12.6247C68.2515 12.6246 65.0735 13.5884 62.3704 15.3944C59.6672 17.2004 57.5602 19.7675 56.316 22.7709C55.0717 25.7744 54.7461 29.0793 55.3801 32.2679C56.0142 35.4564 57.5795 38.3853 59.8782 40.6842C62.1769 42.9831 65.1056 44.5488 68.2941 45.1832C71.4826 45.8176 74.7876 45.4922 77.7911 44.2483C80.7947 43.0043 83.362 40.8977 85.1683 38.1947C86.9745 35.4917 87.9387 32.3138 87.9389 29.0628V29.0619C87.9389 26.9034 87.5137 24.7659 86.6877 22.7717C85.8616 20.7774 84.6509 18.9654 83.1246 17.4391C81.5982 15.9127 79.7862 14.702 77.7919 13.8759C75.7977 13.0499 73.6602 12.6247 71.5017 12.6247H71.5025ZM71.5025 17.5554C72.4777 17.5554 73.431 17.8446 74.2419 18.3864C75.0527 18.9282 75.6847 19.6983 76.0579 20.5992C76.4311 21.5002 76.5288 22.4916 76.3385 23.4481C76.1483 24.4046 75.6787 25.2831 74.9891 25.9727C74.2995 26.6623 73.421 27.1319 72.4645 27.3222C71.508 27.5124 70.5166 27.4148 69.6156 27.0416C68.7147 26.6684 67.9446 26.0364 67.4028 25.2256C66.861 24.4147 66.5718 23.4614 66.5718 22.4862C66.5718 21.1785 67.0913 19.9243 68.016 18.9996C68.9407 18.0749 70.1948 17.5555 71.5025 17.5554ZM71.5025 41.2942C69.5545 41.2853 67.6381 40.8012 65.9195 39.8841C64.2009 38.9669 62.732 37.6443 61.6402 36.0309C61.7194 32.7435 68.2151 30.9339 71.5025 30.9339C74.79 30.9339 81.2857 32.7435 81.3649 36.0309C80.2719 37.6431 78.8027 38.9648 77.0844 39.8818C75.366 40.7989 73.4502 41.2836 71.5025 41.2942Z" fill="#F0E7E7"/>
<path d="M71.6936 148.381C78.4652 135.972 94.687 128.113 107.957 135.197C113.93 138.385 118.678 144.024 120.185 150.689C121.934 158.432 118.249 165.814 114.444 172.319C112.379 175.85 110.116 179.309 108.407 183.033C106.638 186.889 105.373 191.347 106.705 195.542C107.904 199.322 110.912 202.071 114.205 204.091C117.84 206.237 121.706 207.964 125.73 209.239C134.012 211.993 142.749 213.123 151.46 212.567C155.789 212.273 160.082 211.579 164.283 210.494C168.752 209.355 173.138 207.911 177.615 206.796C185.089 204.94 193.611 204.017 200.699 207.746C207.584 211.37 210.666 218.95 211.619 226.324C213.379 239.94 207.98 254.07 198.233 263.605C193.556 268.18 187.671 271.959 181.261 273.505C175.668 274.855 168.487 274.768 164.036 270.587C159.07 265.921 160.238 258.439 164.183 253.516C169.218 247.235 177.747 245.726 185.359 245.573C194.018 245.399 202.668 246.688 211.322 245.887C215.546 245.558 219.691 244.558 223.6 242.925C227.037 241.414 230.172 239.292 232.853 236.664C238.195 231.473 241.798 224.559 243.59 217.37C245.747 208.724 245.277 199.637 243.602 190.953C242.71 186.475 241.561 182.052 240.16 177.706C239.582 175.872 236.686 176.657 237.269 178.504C242.426 194.857 245.302 213.767 235.337 228.951C231.213 235.39 224.79 240.015 217.375 241.881C208.75 244.025 199.701 242.965 190.933 242.646C182.596 242.343 173.442 242.67 166.296 247.526C160.433 251.508 156.333 259.084 158.105 266.235C159.813 273.132 166.441 276.63 173.07 277.169C180.025 277.735 186.869 275.401 192.71 271.751C204.86 264.158 212.939 250.805 214.63 236.647C215.511 229.271 214.614 221.325 211.269 214.629C209.506 211.004 206.763 207.947 203.35 205.803C199.946 203.716 196.015 202.689 192.067 202.326C183.098 201.5 174.48 204.579 165.971 206.935C161.625 208.196 157.169 209.047 152.664 209.476C148.291 209.838 143.893 209.766 139.535 209.262C135.21 208.751 130.947 207.805 126.812 206.438C122.761 205.185 118.881 203.432 115.264 201.217C112.073 199.177 109.314 196.254 109.157 192.272C108.986 187.953 111.164 183.914 113.235 180.273C117.326 173.081 122.38 166.047 123.447 157.628C124.382 150.263 121.418 143.004 116.301 137.751C113.736 135.085 110.648 132.977 107.231 131.559C103.814 130.142 100.141 129.445 96.4422 129.513C88.8495 129.73 81.5796 133.032 75.9949 138.103C73.2251 140.619 70.8943 143.58 69.0984 146.863C68.1733 148.558 70.7615 150.073 71.6876 148.377L71.6936 148.381Z" fill="#3F3D56"/>
</g>
<defs>
<clipPath id="clip0_16_86">
<rect width="525.168" height="352" fill="white"/>
</clipPath>
</defs>
</svg>
