<svg width="48" height="49" viewBox="0 0 48 49" fill="none" xmlns="http://www.w3.org/2000/svg">
<path d="M41 5.4408H7L10 39.4738L24 43.4777L38 39.4738L41 5.4408Z" fill="#0277BD"/>
<path d="M24 8.44366V40.3747L35.2 37.1715L37.7 8.44366H24Z" fill="#039BE5"/>
<path d="M33.1 13.4485H24V17.4524H28.9L28.6 21.4563H24V25.4602H28.4L28.1 29.9646L24 31.3659V35.57L31.9 32.9675L32.6 21.4563L33.1 13.4485Z" fill="white"/>
<path d="M24 13.4485V17.4524H15.1L14.8 13.4485H24ZM19.4 21.4563L19.6 25.4602H24V21.4563H19.4ZM19.8 27.4621H15.8L16.1 32.9675L24 35.57V31.3659L19.9 29.9646L19.8 27.4621Z" fill="#EEEEEE"/>
</svg>
