<svg width="530" height="462" viewBox="0 0 530 462" fill="none" xmlns="http://www.w3.org/2000/svg">
<g clip-path="url(#clip0_14_7)">
<path d="M477.869 240.243C477.938 297.366 455.858 352.291 416.272 393.472C413.885 395.971 411.434 398.409 408.919 400.788C405.086 404.433 401.125 407.937 397.035 411.3C358.776 442.821 311.014 460.534 261.454 461.581C259.802 461.618 258.145 461.637 256.481 461.637C216.956 461.637 167.242 440.525 122.127 411.3C118.394 408.882 114.695 406.408 111.029 403.878C109.315 402.707 107.61 401.519 105.913 400.314C88.5128 388.027 71.9965 374.535 56.4859 359.935C46.3306 350.404 36.8076 340.221 27.9775 329.451C-6.68748 286.692 -14.3333 248.163 35.0875 240.243C40.9387 239.308 46.6176 238.309 52.124 237.246C60.1002 235.713 67.7336 234.058 75.0242 232.279C84.8448 229.893 94.0714 227.305 102.704 224.515C105.608 223.581 108.445 222.627 111.216 221.655C152.181 207.267 179.599 188.504 198.262 168.146C201.427 164.701 204.346 161.213 207.017 157.684C211.104 152.312 214.816 146.666 218.127 140.785C222.698 132.613 226.537 124.053 229.599 115.205L229.767 114.719C244.617 71.8846 240.099 32.1535 256.481 18.8558C326.509 -37.9928 413.692 42.9648 454.613 138.435C456.676 143.246 458.616 148.086 460.433 152.954C461.25 155.129 462.037 157.308 462.795 159.491C464.789 165.18 466.598 170.884 468.222 176.602C468.846 178.783 469.44 180.962 470.005 183.139C470.609 185.488 471.189 187.831 471.724 190.174C475.706 207.329 477.869 224.247 477.869 240.243Z" fill="#F2F2F2"/>
<path d="M261.454 461.581C259.802 461.618 258.145 461.637 256.481 461.637C216.956 461.637 167.242 440.525 122.127 411.3C118.394 408.882 114.695 406.408 111.029 403.878L114.244 384.312L211.584 371.388L260.438 408.745L261.454 461.581Z" fill="#2F2E41"/>
<path d="M266.14 112.195H252.269C251.839 112.195 251.427 112.366 251.123 112.67C250.82 112.974 250.649 113.386 250.649 113.815V127.692C250.649 127.905 250.691 128.115 250.772 128.311C250.854 128.507 250.974 128.686 251.124 128.835C251.274 128.985 251.453 129.104 251.649 129.185C251.846 129.266 252.056 129.307 252.269 129.306H266.14C266.568 129.307 266.98 129.137 267.283 128.834C267.587 128.532 267.758 128.121 267.76 127.692V113.815C267.759 113.386 267.588 112.975 267.284 112.671C266.98 112.368 266.569 112.196 266.14 112.195Z" fill="white"/>
<path d="M266.14 135.843H252.269C251.839 135.843 251.427 136.014 251.123 136.318C250.82 136.622 250.649 137.034 250.649 137.463V151.341C250.649 151.553 250.691 151.763 250.772 151.959C250.854 152.155 250.974 152.334 251.124 152.483C251.274 152.633 251.453 152.752 251.649 152.833C251.846 152.914 252.056 152.955 252.269 152.954H266.14C266.568 152.955 266.98 152.785 267.283 152.482C267.587 152.18 267.758 151.769 267.76 151.341V137.463C267.759 137.034 267.588 136.623 267.284 136.319C266.98 136.015 266.569 135.844 266.14 135.843Z" fill="#E6E6E6"/>
<path d="M266.14 159.491H252.269C251.839 159.491 251.427 159.662 251.123 159.966C250.82 160.27 250.649 160.682 250.649 161.111V174.982C250.648 175.195 250.69 175.406 250.771 175.603C250.852 175.8 250.972 175.978 251.122 176.129C251.273 176.279 251.451 176.399 251.648 176.48C251.845 176.561 252.056 176.603 252.269 176.602H266.14C266.569 176.602 266.981 176.431 267.285 176.128C267.589 175.824 267.76 175.412 267.76 174.982V161.111C267.759 160.682 267.588 160.271 267.284 159.967C266.98 159.663 266.569 159.492 266.14 159.491Z" fill="#E6E6E6"/>
<path d="M267.735 184.473C267.666 184.099 267.469 183.762 267.177 183.519C266.886 183.275 266.519 183.141 266.14 183.139H252.269C251.839 183.139 251.427 183.31 251.123 183.614C250.82 183.918 250.649 184.33 250.649 184.759V198.63C250.648 198.843 250.69 199.054 250.771 199.251C250.852 199.447 250.972 199.626 251.122 199.777C251.273 199.927 251.451 200.047 251.648 200.128C251.845 200.209 252.056 200.251 252.269 200.25H266.14C266.569 200.25 266.981 200.079 267.285 199.776C267.589 199.472 267.76 199.06 267.76 198.63V184.759C267.761 184.663 267.753 184.567 267.735 184.473Z" fill="#E6E6E6"/>
<path d="M266.769 206.912C266.57 206.829 266.356 206.787 266.14 206.787H252.269C252.056 206.787 251.845 206.828 251.648 206.91C251.451 206.991 251.273 207.11 251.122 207.261C250.972 207.411 250.852 207.59 250.771 207.787C250.69 207.983 250.648 208.194 250.649 208.407V222.278C250.648 222.491 250.689 222.702 250.77 222.899C250.851 223.096 250.97 223.275 251.121 223.426C251.272 223.577 251.451 223.696 251.648 223.777C251.845 223.858 252.056 223.899 252.269 223.898H266.14C266.569 223.898 266.981 223.727 267.285 223.424C267.589 223.12 267.76 222.708 267.76 222.278V208.407C267.759 208.088 267.665 207.777 267.489 207.511C267.313 207.245 267.062 207.037 266.769 206.912Z" fill="#E6E6E6"/>
<path d="M295.277 112.195H281.406C280.977 112.195 280.565 112.366 280.261 112.67C279.957 112.974 279.787 113.386 279.786 113.815V127.692C279.787 127.905 279.829 128.115 279.91 128.311C279.992 128.507 280.111 128.686 280.262 128.835C280.412 128.985 280.591 129.104 280.787 129.185C280.984 129.266 281.194 129.307 281.406 129.306H295.277C295.706 129.307 296.117 129.137 296.421 128.834C296.725 128.532 296.896 128.121 296.898 127.692V113.815C296.896 113.386 296.725 112.975 296.422 112.671C296.118 112.368 295.707 112.196 295.277 112.195Z" fill="#E6E6E6"/>
<path d="M295.277 135.843H281.406C280.977 135.843 280.565 136.014 280.261 136.318C279.957 136.622 279.787 137.034 279.786 137.463V151.341C279.787 151.553 279.829 151.763 279.91 151.959C279.992 152.155 280.111 152.334 280.262 152.483C280.412 152.633 280.591 152.752 280.787 152.833C280.984 152.914 281.194 152.955 281.406 152.954H295.277C295.706 152.955 296.117 152.785 296.421 152.482C296.725 152.18 296.896 151.769 296.898 151.341V137.463C296.896 137.034 296.725 136.623 296.422 136.319C296.118 136.015 295.707 135.844 295.277 135.843Z" fill="#F0E7E7"/>
<path d="M295.277 159.491H281.407C280.977 159.491 280.565 159.662 280.261 159.966C279.957 160.27 279.787 160.682 279.786 161.111V174.982C279.786 175.195 279.828 175.406 279.909 175.603C279.99 175.8 280.109 175.978 280.26 176.129C280.411 176.279 280.589 176.399 280.786 176.48C280.983 176.561 281.194 176.603 281.407 176.602H295.277C295.707 176.602 296.119 176.431 296.423 176.128C296.727 175.824 296.897 175.412 296.898 174.982V161.111C296.896 160.682 296.725 160.271 296.422 159.967C296.118 159.663 295.707 159.492 295.277 159.491Z" fill="#F0E7E7"/>
<path d="M295.277 183.139H281.407C281.067 183.139 280.736 183.247 280.461 183.446C280.186 183.645 279.98 183.926 279.874 184.248C279.816 184.412 279.786 184.585 279.786 184.759V198.63C279.786 198.843 279.828 199.054 279.909 199.251C279.99 199.447 280.109 199.626 280.26 199.777C280.41 199.927 280.589 200.047 280.786 200.128C280.983 200.209 281.194 200.251 281.407 200.25H295.277C295.707 200.25 296.119 200.079 296.423 199.776C296.727 199.472 296.897 199.06 296.898 198.63V184.759C296.896 184.33 296.725 183.919 296.422 183.615C296.118 183.311 295.707 183.14 295.277 183.139Z" fill="#F0E7E7"/>
<path d="M295.277 206.787H281.407C281.194 206.787 280.983 206.828 280.786 206.91C280.589 206.991 280.411 207.11 280.26 207.261C280.109 207.411 279.99 207.59 279.909 207.787C279.828 207.983 279.786 208.194 279.786 208.407V222.278C279.786 222.491 279.828 222.702 279.909 222.899C279.99 223.095 280.109 223.274 280.26 223.425C280.411 223.575 280.589 223.695 280.786 223.776C280.983 223.857 281.194 223.899 281.407 223.898H295.277C295.707 223.898 296.119 223.727 296.423 223.424C296.727 223.12 296.897 222.708 296.898 222.278V208.407C296.897 207.978 296.727 207.566 296.423 207.262C296.119 206.958 295.707 206.787 295.277 206.787Z" fill="#E6E6E6"/>
<path d="M324.415 112.195H310.544C310.115 112.195 309.703 112.366 309.399 112.67C309.095 112.974 308.924 113.386 308.924 113.815V127.692C308.924 127.905 308.967 128.115 309.048 128.311C309.13 128.507 309.249 128.686 309.4 128.835C309.55 128.985 309.729 129.104 309.925 129.185C310.121 129.266 310.332 129.307 310.544 129.306H324.415C324.844 129.307 325.255 129.137 325.559 128.834C325.863 128.532 326.034 128.121 326.036 127.692V113.815C326.034 113.386 325.863 112.975 325.56 112.671C325.256 112.368 324.845 112.196 324.415 112.195Z" fill="#F0E7E7"/>
<path d="M324.415 135.843H310.544C310.115 135.843 309.703 136.014 309.399 136.318C309.095 136.622 308.924 137.034 308.924 137.463V151.341C308.924 151.553 308.967 151.763 309.048 151.959C309.13 152.155 309.249 152.334 309.4 152.483C309.55 152.633 309.729 152.752 309.925 152.833C310.121 152.914 310.332 152.955 310.544 152.954H324.415C324.844 152.955 325.255 152.785 325.559 152.482C325.863 152.18 326.034 151.769 326.036 151.341V137.463C326.034 137.034 325.863 136.623 325.56 136.319C325.256 136.015 324.845 135.844 324.415 135.843Z" fill="#F0E7E7"/>
<path d="M324.415 159.491H310.544C310.115 159.491 309.703 159.662 309.399 159.966C309.095 160.27 308.924 160.682 308.924 161.111V174.982C308.924 175.195 308.965 175.406 309.047 175.603C309.128 175.8 309.247 175.978 309.398 176.129C309.548 176.279 309.727 176.399 309.924 176.48C310.121 176.561 310.331 176.603 310.544 176.602H324.415C324.845 176.602 325.257 176.431 325.561 176.128C325.865 175.824 326.035 175.412 326.036 174.982V161.111C326.034 160.682 325.863 160.271 325.56 159.967C325.256 159.663 324.845 159.492 324.415 159.491Z" fill="#E6E6E6"/>
<path d="M324.415 183.139H310.544C310.115 183.139 309.703 183.31 309.399 183.614C309.095 183.918 308.924 184.33 308.924 184.759V198.63C308.924 198.843 308.965 199.054 309.047 199.251C309.128 199.447 309.247 199.626 309.398 199.777C309.548 199.927 309.727 200.047 309.924 200.128C310.121 200.209 310.331 200.251 310.544 200.25H324.415C324.845 200.25 325.257 200.079 325.561 199.776C325.865 199.472 326.035 199.06 326.036 198.63V184.759C326.034 184.33 325.863 183.919 325.56 183.615C325.256 183.311 324.845 183.14 324.415 183.139Z" fill="#F0E7E7"/>
<path d="M324.415 206.787H310.544C310.331 206.787 310.121 206.828 309.924 206.91C309.727 206.991 309.548 207.11 309.398 207.261C309.247 207.411 309.128 207.59 309.047 207.787C308.965 207.983 308.924 208.194 308.924 208.407V222.278C308.924 222.491 308.965 222.702 309.047 222.899C309.128 223.095 309.247 223.274 309.398 223.425C309.548 223.575 309.727 223.695 309.924 223.776C310.121 223.857 310.331 223.899 310.544 223.898H324.415C324.845 223.898 325.257 223.727 325.561 223.424C325.865 223.12 326.035 222.708 326.036 222.278V208.407C326.035 207.978 325.865 207.566 325.561 207.262C325.257 206.958 324.845 206.787 324.415 206.787Z" fill="#F0E7E7"/>
<path d="M353.553 112.195H339.682C339.252 112.195 338.841 112.366 338.537 112.67C338.233 112.974 338.062 113.386 338.062 113.815V127.692C338.062 127.905 338.104 128.115 338.186 128.311C338.267 128.507 338.387 128.686 338.537 128.835C338.688 128.985 338.866 129.104 339.063 129.185C339.259 129.266 339.47 129.307 339.682 129.306H353.553C353.982 129.307 354.393 129.137 354.697 128.834C355 128.532 355.172 128.121 355.173 127.692V113.815C355.172 113.386 355.001 112.975 354.697 112.671C354.394 112.368 353.982 112.196 353.553 112.195Z" fill="#F0E7E7"/>
<path d="M353.553 135.843H339.682C339.252 135.843 338.84 136.014 338.537 136.318C338.233 136.622 338.062 137.034 338.062 137.463V151.341C338.062 151.553 338.104 151.763 338.186 151.959C338.267 152.155 338.387 152.334 338.537 152.483C338.688 152.633 338.866 152.752 339.063 152.833C339.259 152.914 339.47 152.955 339.682 152.954H353.553C353.982 152.955 354.393 152.785 354.697 152.482C355 152.18 355.172 151.769 355.173 151.341V137.463C355.172 137.034 355.001 136.623 354.697 136.319C354.394 136.015 353.982 135.844 353.553 135.843Z" fill="white"/>
<path d="M353.553 159.491H339.682C339.252 159.491 338.84 159.662 338.537 159.966C338.233 160.27 338.062 160.682 338.062 161.111V174.982C338.062 175.195 338.103 175.406 338.184 175.603C338.266 175.8 338.385 175.978 338.536 176.129C338.686 176.279 338.865 176.399 339.062 176.48C339.258 176.561 339.469 176.603 339.682 176.602H353.553C353.983 176.602 354.395 176.431 354.698 176.128C355.002 175.824 355.173 175.412 355.173 174.982V161.111C355.172 160.682 355.001 160.271 354.697 159.967C354.394 159.663 353.982 159.492 353.553 159.491Z" fill="white"/>
<path d="M353.553 183.139H339.682C339.252 183.139 338.84 183.31 338.537 183.614C338.233 183.918 338.062 184.33 338.062 184.759V198.63C338.062 198.843 338.103 199.054 338.184 199.251C338.266 199.447 338.385 199.626 338.536 199.777C338.686 199.927 338.865 200.047 339.062 200.128C339.258 200.209 339.469 200.251 339.682 200.25H353.553C353.983 200.25 354.395 200.079 354.698 199.776C355.002 199.472 355.173 199.06 355.173 198.63V184.759C355.172 184.33 355.001 183.919 354.697 183.615C354.394 183.311 353.982 183.14 353.553 183.139Z" fill="#E6E6E6"/>
<path d="M353.553 206.787H339.682C339.469 206.787 339.258 206.828 339.062 206.91C338.865 206.991 338.686 207.11 338.536 207.261C338.385 207.411 338.266 207.59 338.184 207.787C338.103 207.983 338.062 208.194 338.062 208.407V222.278C338.062 222.491 338.103 222.702 338.184 222.899C338.266 223.095 338.385 223.274 338.536 223.425C338.686 223.575 338.865 223.695 339.062 223.776C339.258 223.857 339.469 223.899 339.682 223.898H353.553C353.983 223.898 354.395 223.727 354.699 223.424C355.002 223.12 355.173 222.708 355.173 222.278V208.407C355.173 207.978 355.002 207.566 354.698 207.262C354.395 206.958 353.983 206.787 353.553 206.787Z" fill="#F0E7E7"/>
<path d="M382.691 112.195H368.814C368.385 112.197 367.974 112.368 367.672 112.672C367.369 112.975 367.2 113.387 367.2 113.815V127.692C367.2 128.121 367.37 128.531 367.673 128.834C367.975 129.136 368.386 129.306 368.814 129.306H382.691C383.12 129.307 383.531 129.137 383.834 128.834C384.138 128.532 384.31 128.121 384.311 127.692V113.815C384.31 113.386 384.139 112.975 383.835 112.671C383.532 112.368 383.12 112.196 382.691 112.195Z" fill="white"/>
<path d="M382.691 135.843H368.814C368.385 135.845 367.974 136.016 367.672 136.32C367.369 136.623 367.2 137.035 367.2 137.463V151.341C367.2 151.769 367.37 152.179 367.673 152.482C367.975 152.784 368.386 152.954 368.814 152.954H382.691C383.12 152.955 383.531 152.785 383.834 152.482C384.138 152.18 384.31 151.769 384.311 151.341V137.463C384.31 137.034 384.139 136.623 383.835 136.319C383.532 136.015 383.12 135.844 382.691 135.843Z" fill="white"/>
<path d="M382.691 159.491H368.814C368.385 159.493 367.974 159.664 367.672 159.968C367.369 160.271 367.2 160.683 367.2 161.111V174.982C367.199 175.195 367.24 175.405 367.321 175.602C367.402 175.798 367.521 175.977 367.671 176.127C367.821 176.277 367.999 176.397 368.195 176.478C368.391 176.56 368.601 176.602 368.814 176.602H382.691C383.121 176.602 383.532 176.431 383.836 176.128C384.14 175.824 384.311 175.412 384.311 174.982V161.111C384.31 160.682 384.139 160.271 383.835 159.967C383.532 159.663 383.12 159.492 382.691 159.491Z" fill="white"/>
<path d="M382.691 183.139H368.814C368.385 183.141 367.974 183.312 367.672 183.616C367.369 183.919 367.2 184.331 367.2 184.759V198.63C367.199 198.843 367.24 199.053 367.321 199.25C367.402 199.446 367.521 199.624 367.671 199.775C367.821 199.925 367.999 200.045 368.195 200.126C368.391 200.208 368.601 200.25 368.814 200.25H382.691C383.121 200.25 383.532 200.079 383.836 199.776C384.14 199.472 384.311 199.06 384.311 198.63V184.759C384.31 184.33 384.139 183.919 383.835 183.615C383.532 183.311 383.12 183.14 382.691 183.139Z" fill="#F0E7E7"/>
<path d="M382.691 206.787H368.814C368.601 206.787 368.391 206.829 368.195 206.911C367.999 206.993 367.821 207.112 367.671 207.262C367.521 207.413 367.402 207.592 367.321 207.788C367.24 207.984 367.199 208.195 367.2 208.407V222.278C367.199 222.491 367.24 222.701 367.321 222.897C367.402 223.094 367.521 223.272 367.671 223.423C367.821 223.573 367.999 223.693 368.195 223.774C368.391 223.856 368.601 223.898 368.814 223.898H382.691C383.121 223.898 383.532 223.727 383.836 223.424C384.14 223.12 384.311 222.708 384.311 222.278V208.407C384.311 207.978 384.14 207.566 383.836 207.262C383.532 206.958 383.121 206.787 382.691 206.787Z" fill="#E6E6E6"/>
<path d="M411.829 112.195H397.951C397.523 112.197 397.112 112.368 396.81 112.672C396.507 112.975 396.337 113.387 396.337 113.815V127.692C396.338 128.121 396.508 128.531 396.81 128.834C397.113 129.136 397.523 129.306 397.951 129.306H411.829C412.257 129.307 412.669 129.137 412.972 128.834C413.276 128.532 413.447 128.121 413.449 127.692V113.815C413.448 113.386 413.276 112.975 412.973 112.671C412.669 112.368 412.258 112.196 411.829 112.195Z" fill="white"/>
<path d="M411.829 135.843H397.951C397.523 135.845 397.112 136.016 396.81 136.32C396.507 136.623 396.337 137.035 396.337 137.463V151.341C396.338 151.769 396.508 152.179 396.81 152.482C397.113 152.784 397.523 152.954 397.951 152.954H411.829C412.257 152.955 412.669 152.785 412.972 152.482C413.276 152.18 413.447 151.769 413.449 151.341V137.463C413.448 137.034 413.276 136.623 412.973 136.319C412.669 136.015 412.258 135.844 411.829 135.843Z" fill="white"/>
<path d="M411.829 159.491H397.951C397.523 159.493 397.112 159.664 396.81 159.968C396.507 160.271 396.337 160.683 396.338 161.111V174.982C396.337 175.195 396.378 175.405 396.459 175.602C396.54 175.798 396.659 175.977 396.809 176.127C396.958 176.277 397.137 176.397 397.333 176.478C397.529 176.56 397.739 176.602 397.951 176.602H411.829C412.258 176.602 412.67 176.431 412.974 176.128C413.278 175.824 413.449 175.412 413.449 174.982V161.111C413.448 160.682 413.276 160.271 412.973 159.967C412.669 159.663 412.258 159.492 411.829 159.491Z" fill="#F0E7E7"/>
<path d="M411.829 183.139H397.951C397.523 183.141 397.112 183.312 396.81 183.616C396.507 183.919 396.337 184.331 396.338 184.759V198.63C396.337 198.843 396.378 199.053 396.459 199.25C396.54 199.446 396.659 199.624 396.809 199.775C396.958 199.925 397.137 200.045 397.333 200.126C397.529 200.208 397.739 200.25 397.951 200.25H411.829C412.258 200.25 412.67 200.079 412.974 199.776C413.278 199.472 413.449 199.06 413.449 198.63V184.759C413.448 184.33 413.276 183.919 412.973 183.615C412.669 183.311 412.258 183.14 411.829 183.139Z" fill="#E6E6E6"/>
<path d="M411.829 206.787H397.951C397.739 206.787 397.529 206.829 397.333 206.911C397.137 206.993 396.958 207.112 396.809 207.262C396.659 207.413 396.54 207.592 396.459 207.788C396.378 207.984 396.337 208.195 396.338 208.407V222.278C396.337 222.491 396.378 222.701 396.459 222.897C396.54 223.094 396.659 223.272 396.809 223.423C396.958 223.573 397.137 223.693 397.333 223.774C397.529 223.856 397.739 223.898 397.951 223.898H411.829C412.258 223.898 412.67 223.727 412.974 223.424C413.278 223.12 413.449 222.708 413.449 222.278V208.407C413.449 207.978 413.278 207.566 412.974 207.262C412.67 206.958 412.258 206.787 411.829 206.787Z" fill="white"/>
<path d="M440.966 112.195H427.089C426.661 112.197 426.25 112.368 425.947 112.672C425.645 112.975 425.475 113.387 425.475 113.815V127.692C425.475 128.121 425.645 128.531 425.948 128.834C426.251 129.136 426.661 129.306 427.089 129.306H440.966C441.395 129.307 441.806 129.137 442.11 128.834C442.414 128.532 442.585 128.121 442.587 127.692V113.815C442.585 113.386 442.414 112.975 442.111 112.671C441.807 112.368 441.396 112.196 440.966 112.195Z" fill="#F0E7E7"/>
<path d="M440.966 135.843H427.089C426.661 135.845 426.25 136.016 425.947 136.32C425.645 136.623 425.475 137.035 425.475 137.463V151.341C425.475 151.769 425.645 152.179 425.948 152.482C426.251 152.784 426.661 152.954 427.089 152.954H440.966C441.395 152.955 441.806 152.785 442.11 152.482C442.414 152.18 442.585 151.769 442.587 151.341V137.463C442.585 137.034 442.414 136.623 442.111 136.319C441.807 136.015 441.396 135.844 440.966 135.843Z" fill="#F0E7E7"/>
<path d="M440.966 159.491H427.089C426.661 159.493 426.25 159.664 425.947 159.968C425.645 160.271 425.475 160.683 425.475 161.111V174.982C425.475 175.195 425.516 175.405 425.597 175.602C425.678 175.798 425.796 175.977 425.946 176.127C426.096 176.277 426.274 176.397 426.47 176.478C426.667 176.56 426.877 176.602 427.089 176.602H440.966C441.396 176.602 441.808 176.431 442.112 176.128C442.416 175.824 442.586 175.412 442.587 174.982V161.111C442.585 160.682 442.414 160.271 442.111 159.967C441.807 159.663 441.396 159.492 440.966 159.491Z" fill="#E6E6E6"/>
<path d="M440.966 183.139H427.089C426.661 183.141 426.25 183.312 425.947 183.616C425.645 183.919 425.475 184.331 425.475 184.759V198.63C425.475 198.843 425.516 199.053 425.597 199.25C425.678 199.446 425.796 199.624 425.946 199.775C426.096 199.925 426.274 200.045 426.47 200.126C426.667 200.208 426.877 200.25 427.089 200.25H440.966C441.396 200.25 441.808 200.079 442.112 199.776C442.416 199.472 442.586 199.06 442.587 198.63V184.759C442.585 184.33 442.414 183.919 442.111 183.615C441.807 183.311 441.396 183.14 440.966 183.139Z" fill="white"/>
<path d="M440.966 206.787H427.089C426.877 206.787 426.667 206.829 426.47 206.911C426.274 206.993 426.096 207.112 425.946 207.262C425.796 207.413 425.678 207.592 425.597 207.788C425.516 207.984 425.475 208.195 425.475 208.407V222.278C425.475 222.491 425.516 222.701 425.597 222.897C425.678 223.094 425.796 223.272 425.946 223.423C426.096 223.573 426.274 223.693 426.47 223.774C426.667 223.856 426.877 223.898 427.089 223.898H440.966C441.396 223.898 441.808 223.727 442.112 223.424C442.416 223.12 442.586 222.708 442.587 222.278V208.407C442.586 207.978 442.416 207.566 442.112 207.262C441.808 206.958 441.396 206.787 440.966 206.787Z" fill="#F0E7E7"/>
<path d="M470.104 112.195H456.227C455.798 112.197 455.388 112.368 455.085 112.672C454.783 112.975 454.613 113.387 454.613 113.815V127.692C454.613 128.121 454.783 128.531 455.086 128.834C455.389 129.136 455.799 129.306 456.227 129.306H470.104C470.533 129.307 470.944 129.137 471.248 128.834C471.552 128.532 471.723 128.121 471.724 127.692V113.815C471.723 113.386 471.552 112.975 471.248 112.671C470.945 112.368 470.534 112.196 470.104 112.195Z" fill="#F0E7E7"/>
<path d="M470.104 135.843H456.227C455.798 135.845 455.388 136.016 455.085 136.32C454.783 136.623 454.613 137.035 454.613 137.463V151.341C454.613 151.769 454.783 152.179 455.086 152.482C455.389 152.784 455.799 152.954 456.227 152.954H470.104C470.533 152.955 470.944 152.785 471.248 152.482C471.552 152.18 471.723 151.769 471.724 151.341V137.463C471.723 137.034 471.552 136.623 471.248 136.319C470.945 136.015 470.534 135.844 470.104 135.843Z" fill="#F0E7E7"/>
<path d="M470.104 159.491H456.227C455.798 159.493 455.388 159.664 455.085 159.968C454.783 160.271 454.613 160.683 454.613 161.111V174.982C454.613 175.195 454.654 175.405 454.735 175.602C454.815 175.798 454.934 175.977 455.084 176.127C455.234 176.277 455.412 176.397 455.608 176.478C455.804 176.56 456.015 176.602 456.227 176.602H470.104C470.534 176.602 470.946 176.431 471.25 176.128C471.553 175.824 471.724 175.412 471.724 174.982V161.111C471.723 160.682 471.552 160.271 471.248 159.967C470.945 159.663 470.534 159.492 470.104 159.491Z" fill="#E6E6E6"/>
<path d="M470.104 183.139H456.227C455.798 183.141 455.388 183.312 455.085 183.616C454.783 183.919 454.613 184.331 454.613 184.759V198.63C454.613 198.843 454.654 199.053 454.735 199.25C454.815 199.446 454.934 199.624 455.084 199.775C455.234 199.925 455.412 200.045 455.608 200.126C455.804 200.208 456.015 200.25 456.227 200.25H470.104C470.534 200.25 470.946 200.079 471.25 199.776C471.553 199.472 471.724 199.06 471.724 198.63V184.759C471.723 184.33 471.552 183.919 471.248 183.615C470.945 183.311 470.534 183.14 470.104 183.139Z" fill="#F0E7E7"/>
<path d="M470.104 206.787H456.227C456.015 206.787 455.804 206.829 455.608 206.911C455.412 206.993 455.234 207.112 455.084 207.262C454.934 207.413 454.815 207.592 454.735 207.788C454.654 207.984 454.613 208.195 454.613 208.407V222.278C454.613 222.491 454.654 222.701 454.735 222.897C454.815 223.094 454.934 223.272 455.084 223.423C455.234 223.573 455.412 223.693 455.608 223.774C455.804 223.856 456.015 223.898 456.227 223.898H470.104C470.534 223.898 470.946 223.727 471.25 223.424C471.553 223.12 471.724 222.708 471.724 222.278V208.407C471.724 207.978 471.553 207.566 471.25 207.262C470.946 206.958 470.534 206.787 470.104 206.787Z" fill="#F0E7E7"/>
<path d="M499.242 112.195H485.365C484.936 112.197 484.526 112.368 484.223 112.672C483.921 112.975 483.751 113.387 483.751 113.815V127.692C483.751 128.121 483.921 128.531 484.224 128.834C484.526 129.136 484.937 129.306 485.365 129.306H499.242C499.671 129.307 500.082 129.137 500.386 128.834C500.689 128.532 500.861 128.121 500.862 127.692V113.815C500.861 113.386 500.69 112.975 500.386 112.671C500.083 112.368 499.671 112.196 499.242 112.195Z" fill="#E6E6E6"/>
<path d="M499.242 135.843H485.365C484.936 135.845 484.526 136.016 484.223 136.32C483.921 136.623 483.751 137.035 483.751 137.463V151.341C483.751 151.769 483.921 152.179 484.224 152.482C484.526 152.784 484.937 152.954 485.365 152.954H499.242C499.671 152.955 500.082 152.785 500.386 152.482C500.689 152.18 500.861 151.769 500.862 151.341V137.463C500.861 137.034 500.69 136.623 500.386 136.319C500.083 136.015 499.671 135.844 499.242 135.843Z" fill="#F0E7E7"/>
<path d="M499.242 159.491H485.365C484.936 159.493 484.526 159.664 484.223 159.968C483.921 160.271 483.751 160.683 483.751 161.111V174.982C483.75 175.195 483.792 175.405 483.872 175.602C483.953 175.798 484.072 175.977 484.222 176.127C484.372 176.277 484.55 176.397 484.746 176.478C484.942 176.56 485.152 176.602 485.365 176.602H499.242C499.672 176.602 500.084 176.431 500.387 176.128C500.691 175.824 500.862 175.412 500.862 174.982V161.111C500.861 160.682 500.69 160.271 500.386 159.967C500.083 159.663 499.671 159.492 499.242 159.491Z" fill="#F0E7E7"/>
<path d="M499.242 183.139H485.365C484.936 183.141 484.526 183.312 484.223 183.616C483.921 183.919 483.751 184.331 483.751 184.759V198.63C483.75 198.843 483.792 199.053 483.872 199.25C483.953 199.446 484.072 199.624 484.222 199.775C484.372 199.925 484.55 200.045 484.746 200.126C484.942 200.208 485.152 200.25 485.365 200.25H499.242C499.672 200.25 500.084 200.079 500.387 199.776C500.691 199.472 500.862 199.06 500.862 198.63V184.759C500.861 184.33 500.69 183.919 500.386 183.615C500.083 183.311 499.671 183.14 499.242 183.139Z" fill="#F0E7E7"/>
<path d="M499.242 206.787H485.365C485.152 206.787 484.942 206.829 484.746 206.911C484.55 206.993 484.372 207.112 484.222 207.262C484.072 207.413 483.953 207.592 483.872 207.788C483.792 207.984 483.75 208.195 483.751 208.407V222.278C483.75 222.491 483.792 222.701 483.872 222.897C483.953 223.094 484.072 223.272 484.222 223.423C484.372 223.573 484.55 223.693 484.746 223.774C484.942 223.856 485.152 223.898 485.365 223.898H499.242C499.672 223.898 500.084 223.727 500.387 223.424C500.691 223.12 500.862 222.708 500.862 222.278V208.407C500.862 207.978 500.691 207.566 500.387 207.262C500.084 206.958 499.672 206.787 499.242 206.787Z" fill="#E6E6E6"/>
<path d="M528.38 112.195H514.503C514.074 112.197 513.663 112.368 513.361 112.672C513.058 112.975 512.888 113.387 512.889 113.815V127.692C512.889 128.121 513.059 128.531 513.361 128.834C513.664 129.136 514.075 129.306 514.503 129.306H528.38C528.808 129.307 529.22 129.137 529.523 128.834C529.827 128.532 529.998 128.121 530 127.692V113.815C529.999 113.386 529.828 112.975 529.524 112.671C529.22 112.368 528.809 112.196 528.38 112.195Z" fill="#E6E6E6"/>
<path d="M528.38 135.843H514.503C514.074 135.845 513.663 136.016 513.361 136.32C513.058 136.623 512.888 137.035 512.889 137.463V151.341C512.889 151.769 513.059 152.179 513.361 152.482C513.664 152.784 514.075 152.954 514.503 152.954H528.38C528.808 152.955 529.22 152.785 529.523 152.482C529.827 152.18 529.998 151.769 530 151.341V137.463C529.999 137.034 529.828 136.623 529.524 136.319C529.22 136.015 528.809 135.844 528.38 135.843Z" fill="#E6E6E6"/>
<path d="M528.38 159.491H514.503C514.074 159.493 513.663 159.664 513.361 159.968C513.058 160.271 512.888 160.683 512.889 161.111V174.982C512.888 175.195 512.929 175.405 513.01 175.602C513.091 175.798 513.21 175.977 513.36 176.127C513.51 176.277 513.688 176.397 513.884 176.478C514.08 176.56 514.29 176.602 514.503 176.602H528.38C528.809 176.602 529.221 176.431 529.525 176.128C529.829 175.824 530 175.412 530 174.982V161.111C529.999 160.682 529.828 160.271 529.524 159.967C529.22 159.663 528.809 159.492 528.38 159.491Z" fill="#F0E7E7"/>
<path d="M528.38 183.139H514.503C514.074 183.141 513.663 183.312 513.361 183.616C513.058 183.919 512.888 184.331 512.889 184.759V198.63C512.888 198.843 512.929 199.053 513.01 199.25C513.091 199.446 513.21 199.625 513.36 199.775C513.51 199.925 513.688 200.045 513.884 200.126C514.08 200.208 514.29 200.25 514.503 200.25H528.38C528.809 200.25 529.221 200.079 529.525 199.776C529.829 199.472 530 199.06 530 198.63V184.759C529.999 184.33 529.828 183.919 529.524 183.615C529.22 183.311 528.809 183.14 528.38 183.139Z" fill="#E6E6E6"/>
<path d="M528.38 206.787H514.503C514.29 206.787 514.08 206.829 513.884 206.911C513.688 206.993 513.51 207.112 513.36 207.262C513.21 207.413 513.091 207.592 513.01 207.788C512.929 207.984 512.888 208.195 512.889 208.407V222.278C512.888 222.491 512.929 222.701 513.01 222.897C513.091 223.094 513.21 223.272 513.36 223.423C513.51 223.573 513.688 223.693 513.884 223.774C514.08 223.856 514.29 223.898 514.503 223.898H528.38C528.809 223.898 529.221 223.727 529.525 223.424C529.829 223.12 530 222.708 530 222.278V208.407C530 207.978 529.829 207.566 529.525 207.262C529.221 206.958 528.809 206.787 528.38 206.787Z" fill="#E6E6E6"/>
<path d="M209.433 411.301H209.046L209.376 411.257L209.433 411.301Z" fill="#2F2E41"/>
<path d="M176.232 152.702C199.744 152.702 218.805 133.641 218.805 110.128C218.805 86.6155 199.744 67.5546 176.232 67.5546C152.719 67.5546 133.658 86.6155 133.658 110.128C133.658 133.641 152.719 152.702 176.232 152.702Z" fill="#FFB6B6"/>
<path d="M213.515 78.914C213.515 78.914 224.65 57.6272 200.152 55.692C200.152 55.692 179.268 36.7473 157.981 52.2286C157.981 52.2286 146.37 52.2286 140.021 65.3678C140.021 65.3678 130.889 61.9044 128.882 71.1733C128.882 71.1733 122.2 90.5251 128.882 107.942C135.564 125.358 137.784 127.293 137.784 127.293C137.784 127.293 126.803 90.7786 153.53 88.8434C180.257 86.9081 210.165 70.2058 212.392 91.4926C214.62 112.779 217.971 118.024 217.971 118.024C217.971 118.024 239.127 87.6223 213.515 78.914Z" fill="#2F2E41"/>
<path d="M286.36 215.05L286.223 215.773L284.684 223.898L274.047 280.105L273.418 283.414L272.097 290.412L270.29 299.958L266.283 321.114L265.137 327.177L264.707 329.451L264.557 330.249L263.367 336.524L263.005 338.418L260.102 359.935L257.565 378.685L266.053 387.172L260.993 392.232L257.671 411.256L257.678 411.3H122.127C116.643 407.748 111.239 404.086 105.913 400.314L107.028 391.964C107.028 391.964 110.867 377.052 109.253 375.27C107.645 373.488 104.118 370.304 104.118 370.304L108.561 359.935L109.178 358.496L108.144 337.041L108.119 336.524L107.776 329.451L107.733 328.541L107.664 327.177L106.349 299.958L106.324 299.509L105.926 291.259L105.552 283.414L105.39 280.105L103.788 246.998L102.704 224.515L101.757 204.943L105.564 203.653L146.286 189.813L163.154 167.885L198.262 168.146L215.448 168.277L244.124 194.873L250.649 197.988L250.699 198.013L255.378 200.25L267.243 205.915L279.786 211.909L286.223 214.981L286.36 215.05Z" fill="#CACACA"/>
<path d="M167.691 347.429C165.118 348.426 162.359 348.847 159.606 348.661C156.853 348.476 154.174 347.689 151.759 346.357C149.343 345.024 147.248 343.178 145.623 340.949C143.998 338.719 142.881 336.16 142.352 333.453L75.9515 324.032L99.0342 297.921L158.55 310.87C163.158 310.283 167.822 311.405 171.657 314.026C175.492 316.647 178.233 320.583 179.359 325.09C180.486 329.596 179.921 334.359 177.77 338.477C175.62 342.594 172.033 345.78 167.691 347.429V347.429Z" fill="#FFB6B6"/>
<path d="M138.085 299.958C136.855 298.399 135.114 297.324 133.169 296.924L105.926 291.259L103.128 290.68C101.502 290.34 99.9656 289.662 98.6201 288.688C97.2746 287.714 96.15 286.466 95.3197 285.028C94.4585 283.518 93.9375 281.838 93.793 280.105C93.6632 278.53 93.8518 276.945 94.3476 275.444L103.788 246.998L109.913 228.541C110.656 226.315 111.094 223.998 111.216 221.655C111.557 215.17 109.551 208.779 105.564 203.653C102.059 199.147 97.1978 195.888 91.6983 194.357C86.1989 192.827 80.3529 193.106 75.0242 195.153C74.8684 195.209 74.7064 195.272 74.5506 195.334C70.7291 196.86 67.3148 199.254 64.5776 202.326C61.8404 205.398 59.8552 209.065 58.779 213.037L52.124 237.246L38.3963 287.153C37.0221 292.153 36.7445 297.391 37.5824 302.509C38.4204 307.626 40.3541 312.502 43.2513 316.803C46.1485 321.104 49.9407 324.728 54.3685 327.427C58.7962 330.126 63.7548 331.837 68.905 332.442L108.144 337.041L126.302 339.172C128.402 339.424 130.519 338.876 132.233 337.637C133.947 336.398 135.131 334.559 135.549 332.486C135.579 332.373 135.602 332.259 135.618 332.143L136.054 329.451L139.749 306.782L139.787 306.551C139.979 305.394 139.927 304.21 139.634 303.074C139.341 301.939 138.814 300.877 138.085 299.958Z" fill="#CACACA"/>
<path d="M209.986 348.156C212.673 348.78 215.465 348.807 218.164 348.235C220.863 347.664 223.404 346.507 225.608 344.847C227.811 343.187 229.625 341.064 230.919 338.628C232.214 336.192 232.958 333.501 233.1 330.746L297.509 312.056L270.975 289.461L213.879 310.673C209.235 310.741 204.776 312.51 201.349 315.646C197.922 318.781 195.764 323.065 195.284 327.685C194.804 332.306 196.035 336.941 198.745 340.714C201.455 344.487 205.454 347.135 209.986 348.156V348.156Z" fill="#FFB6B6"/>
<path d="M329.488 270.247L298.854 199.746C296.349 193.958 291.874 189.244 286.223 186.442C284.477 185.582 282.642 184.913 280.752 184.448C280.459 184.373 280.166 184.304 279.874 184.248C275.865 183.374 271.708 183.45 267.735 184.473C264.103 185.406 260.709 187.094 257.773 189.427C254.838 191.76 252.427 194.686 250.698 198.013C250.68 198.041 250.663 198.07 250.649 198.101C248.718 201.836 247.691 205.973 247.651 210.177C247.611 214.382 248.559 218.538 250.418 222.309L250.798 223.07L272.446 266.546C273.185 268.032 273.602 269.659 273.668 271.318C273.735 272.977 273.45 274.631 272.832 276.172C272.214 277.713 271.277 279.106 270.083 280.26C268.889 281.413 267.464 282.301 265.903 282.866L264.382 283.414L237.039 293.291C234.988 294.023 233.3 295.522 232.332 297.474C231.364 299.425 231.19 301.676 231.849 303.753L231.917 303.971L239.582 328.498C239.619 328.61 239.656 328.722 239.7 328.834C239.767 329.046 239.851 329.252 239.949 329.451C240.764 331.278 242.204 332.754 244.01 333.615C245.816 334.475 247.869 334.662 249.801 334.143L264.557 330.249L267.567 329.451L305.671 319.388C310.685 318.063 315.353 315.67 319.357 312.373C323.36 309.077 326.603 304.954 328.865 300.287C331.127 295.62 332.353 290.52 332.461 285.335C332.568 280.15 331.554 275.003 329.488 270.247L329.488 270.247Z" fill="#CACACA"/>
<path d="M27.9775 329.451C36.8076 340.221 46.3306 350.404 56.4859 359.935H338.124C340.838 359.939 343.439 361.019 345.357 362.939C347.275 364.858 348.354 367.46 348.356 370.173L348.761 441.541C366.087 433.58 382.313 423.416 397.035 411.3C401.123 407.941 405.084 404.437 408.919 400.788C411.43 398.407 413.881 395.969 416.272 393.472C434.195 374.8 448.709 353.132 459.156 329.451H27.9775Z" fill="#3F3D56"/>
<path d="M416.272 393.472C413.885 395.971 411.434 398.409 408.919 400.788H348.967V393.472H416.272Z" fill="white"/>
<path d="M285.8 159.491C285.504 158.944 285.065 158.488 284.531 158.17C283.997 157.852 283.387 157.684 282.765 157.684H78.4764C77.5605 157.686 76.6829 158.052 76.0358 158.7C75.3887 159.348 75.025 160.227 75.0242 161.142V283.414H286.223V161.142C286.227 160.565 286.081 159.996 285.8 159.491Z" fill="#3F3D56"/>
<path d="M74.8392 280.104V295.192C74.8392 295.818 74.9624 296.437 75.2018 297.015C75.4412 297.593 75.792 298.118 76.2343 298.56C76.6766 299.002 77.2017 299.353 77.7796 299.593C78.3575 299.832 78.9768 299.955 79.6024 299.955H157.554V329.733H156.519C156.438 329.733 156.357 329.749 156.282 329.78C156.207 329.811 156.139 329.857 156.081 329.914C156.024 329.971 155.978 330.04 155.947 330.115C155.916 330.19 155.9 330.27 155.9 330.352V332.423C155.9 332.504 155.916 332.584 155.947 332.659C155.978 332.735 156.024 332.803 156.081 332.86C156.139 332.918 156.207 332.963 156.282 332.994C156.357 333.025 156.438 333.041 156.519 333.041H204.911C204.992 333.041 205.072 333.025 205.147 332.994C205.222 332.963 205.291 332.918 205.348 332.86C205.406 332.803 205.451 332.735 205.482 332.659C205.513 332.584 205.529 332.504 205.529 332.423V330.352C205.529 330.27 205.513 330.19 205.482 330.115C205.451 330.04 205.406 329.971 205.348 329.914C205.291 329.857 205.222 329.811 205.147 329.78C205.072 329.749 204.992 329.733 204.911 329.733H203.875V299.955H281.827C282.453 299.955 283.072 299.832 283.65 299.593C284.228 299.353 284.753 299.002 285.195 298.56C285.638 298.118 285.988 297.593 286.228 297.015C286.467 296.437 286.59 295.818 286.59 295.192V280.104H74.8392Z" fill="#3F3D56"/>
<path d="M178.156 236.798C188.93 236.798 197.664 228.064 197.664 217.29C197.664 206.515 188.93 197.781 178.156 197.781C167.382 197.781 158.648 206.515 158.648 217.29C158.648 228.064 167.382 236.798 178.156 236.798Z" fill="#F0E7E7"/>
<path d="M227.861 107.802H224.745C224.745 84.2476 201.433 68.8125 177.916 68.8001C174.496 68.7901 171.083 69.122 167.728 69.7909C163.952 70.5448 160.032 71.4484 156.181 72.6261C140.996 77.2809 126.913 86.279 126.913 107.802C126.909 111.982 127.441 116.145 128.495 120.19L125.479 120.975C124.361 116.674 123.795 112.247 123.797 107.802C123.797 88.9959 131.518 76.0783 144.853 68.3763C151.863 64.326 160.419 61.715 170.221 60.4438C174.299 59.9012 178.423 59.7759 182.527 60.07C209.572 62.0141 227.861 82.7521 227.861 107.802Z" fill="#F0E7E7"/>
<path d="M233.051 109.528L231.824 100.455C231.521 98.164 230.417 96.0538 228.708 94.4981C227.611 93.484 226.297 92.7326 224.867 92.3007C223.436 91.8689 221.927 91.768 220.451 92.0056L218.501 92.2735C217.967 92.3438 217.453 92.5193 216.988 92.7899C216.522 93.0606 216.115 93.4209 215.79 93.8501C215.463 94.2778 215.223 94.7661 215.085 95.287C214.947 95.8079 214.914 96.3509 214.987 96.8847L217.822 117.785C217.939 118.637 218.32 119.43 218.913 120.053C219.506 120.676 220.279 121.097 221.124 121.256C221.375 121.306 221.629 121.331 221.885 121.33C222.068 121.33 222.251 121.318 222.433 121.293L224.614 121C225.944 120.824 227.223 120.377 228.374 119.688C229.525 118.999 230.523 118.082 231.306 116.993C231.475 116.757 231.637 116.513 231.786 116.264C232.954 114.225 233.4 111.852 233.051 109.528Z" fill="#F0E7E7"/>
<path d="M217.242 92.6537C216.67 92.9316 216.173 93.3417 215.79 93.8501C215.463 94.2778 215.223 94.7662 215.085 95.287C214.947 95.8079 214.914 96.3509 214.987 96.8848L217.822 117.785C217.939 118.637 218.32 119.43 218.913 120.053C219.506 120.676 220.279 121.097 221.124 121.256L217.242 92.6537Z" fill="white"/>
<path d="M233.051 109.528L231.824 100.455C231.521 98.1641 230.417 96.0538 228.708 94.4981L231.531 115.292C231.573 115.626 231.659 115.953 231.786 116.264C232.954 114.225 233.4 111.852 233.051 109.528Z" fill="#3F3D56"/>
<path d="M223.349 116.065C224.202 115.95 224.63 113.921 224.307 111.533C223.983 109.146 223.029 107.305 222.177 107.421C221.324 107.536 220.895 109.565 221.219 111.952C221.543 114.339 222.497 116.181 223.349 116.065Z" fill="#3F3D56"/>
<path d="M221.48 104.849C222.332 104.733 222.761 102.704 222.437 100.317C222.113 97.9299 221.16 96.0885 220.307 96.2041C219.455 96.3198 219.026 98.3487 219.35 100.736C219.674 103.123 220.627 104.965 221.48 104.849Z" fill="#3F3D56"/>
<path d="M233.319 109.211C234.172 109.095 234.601 107.066 234.277 104.679C233.953 102.292 232.999 100.45 232.147 100.566C231.294 100.682 230.865 102.711 231.189 105.098C231.513 107.485 232.467 109.326 233.319 109.211Z" fill="#3F3D56"/>
<path d="M177.916 68.8001C174.496 68.7901 171.083 69.122 167.728 69.7908C163.952 70.5448 160.032 71.4484 156.181 72.6261C150.168 72.3332 145.744 70.7754 144.853 68.3763C151.863 64.3259 160.419 61.715 170.221 60.4438C174.299 59.9012 178.423 59.7759 182.527 60.0699C182.962 60.3246 183.338 60.6684 183.63 61.0787C183.922 61.489 184.124 61.9564 184.222 62.4503C184.515 64.6188 182.041 66.9244 177.916 68.8001Z" fill="#3F3D56"/>
<path d="M138.135 129.425L133.337 109.478C133.166 108.759 132.786 108.106 132.245 107.601C131.704 107.097 131.026 106.763 130.296 106.643C130.09 106.611 129.882 106.594 129.673 106.593C129.379 106.594 129.086 106.63 128.801 106.699L126.944 107.148C124.553 107.726 122.489 109.229 121.205 111.327C119.921 113.425 119.522 115.947 120.096 118.339L122.245 127.288C122.736 129.394 123.905 131.281 125.573 132.659C125.843 132.877 126.126 133.079 126.42 133.263C127.465 133.918 128.63 134.357 129.847 134.554C131.064 134.751 132.308 134.702 133.505 134.41L135.356 133.961C135.846 133.847 136.306 133.633 136.708 133.332C137.307 132.896 137.762 132.291 138.016 131.595C138.27 130.9 138.312 130.144 138.135 129.425Z" fill="#F0E7E7"/>
<path d="M128.076 125.714C128.913 125.512 129.134 123.45 128.571 121.108C128.007 118.766 126.872 117.031 126.035 117.232C125.199 117.433 124.978 119.495 125.541 121.837C126.105 124.179 127.24 125.915 128.076 125.714Z" fill="#3F3D56"/>
<path d="M121.845 127.583C122.682 127.382 122.903 125.32 122.339 122.978C121.776 120.635 120.641 118.9 119.804 119.101C118.968 119.303 118.746 121.364 119.31 123.707C119.874 126.049 121.009 127.784 121.845 127.583Z" fill="#3F3D56"/>
<path d="M138.441 129.35L133.643 109.403C133.456 108.625 133.043 107.919 132.457 107.373C131.87 106.828 131.136 106.468 130.346 106.338L136.895 133.581C137.542 133.107 138.034 132.453 138.309 131.7C138.584 130.947 138.63 130.129 138.441 129.35Z" fill="white"/>
<path d="M121.18 114.389C121.047 113.834 120.799 113.314 120.451 112.862C119.776 114.609 119.652 116.52 120.096 118.339L122.245 127.288C122.736 129.394 123.905 131.281 125.573 132.659L121.18 114.389Z" fill="#3F3D56"/>
</g>
<defs>
<clipPath id="clip0_14_7">
<rect width="530" height="461.637" fill="white"/>
</clipPath>
</defs>
</svg>
