<svg width="48" height="48" viewBox="0 0 48 48" fill="none" xmlns="http://www.w3.org/2000/svg">
<path d="M6 42V6H42V42H6Z" fill="#FFD600"/>
<path d="M27.205 34.947C27.897 36.071 28.649 37.148 30.242 37.148C31.58 37.148 32.282 36.483 32.282 35.563C32.282 34.462 31.556 34.071 30.084 33.43L29.277 33.086C26.948 32.098 25.399 30.86 25.399 28.245C25.399 25.835 27.244 24.001 30.127 24.001C32.18 24.001 33.655 24.712 34.719 26.574L32.205 28.181C31.652 27.193 31.054 26.804 30.127 26.804C29.181 26.804 28.582 27.401 28.582 28.181C28.582 29.145 29.182 29.535 30.567 30.132L31.374 30.476C34.119 31.645 35.667 32.839 35.667 35.523C35.667 38.415 33.383 40 30.317 40C27.318 40 25.615 38.495 24.667 36.632L27.205 34.947ZM15.619 35.029C16.125 35.935 16.894 36.632 18 36.632C19.058 36.632 19.667 36.214 19.667 34.589V24H23V35.101C23 38.468 21.047 40 18.195 40C15.618 40 13.758 38.254 13 36.632L15.619 35.029Z" fill="#000001"/>
</svg>
