<svg width="48" height="48" viewBox="0 0 48 48" fill="none" xmlns="http://www.w3.org/2000/svg">
<g clip-path="url(#clip0_43_2)">
<path d="M16 1.3C11.1 2.9 2.7 11.5 1.2 16.6C-1.6 26 0.400002 33.5 7.5 40.5C12.7 45.8 17.7 48 24.2 48C27.1 48 33.6 46.4 34.8 45.4C35 45.3 31.3 39.7 26.6 33L18 20.8V27.9C18 33.5 17.7 35 16.5 35C15.3 35 15 33.2 15 25C15 17.3 15.3 15 16.3 15C17.1 15 22.1 21.6 27.5 29.7L37.3 44.4L41.5 39.8C50.6 29.7 50.2 17.2 40.5 7.5C33.5 0.399998 25.3 -1.6 16 1.3ZM33 23.2C33 30.2 32.8 31.1 31.5 30C30.4 29.1 30 26.8 30 22C30 18.4 30.3 15 30.6 14.7C32.3 13.1 33 15.8 33 23.2Z" fill="black"/>
</g>
<defs>
<clipPath id="clip0_43_2">
<rect width="48" height="48" fill="white"/>
</clipPath>
</defs>
</svg>
