<svg width="48" height="49" viewBox="0 0 48 49" fill="none" xmlns="http://www.w3.org/2000/svg">
<g clip-path="url(#clip0_43_11)">
<path d="M24 48.5058C23.2547 48.5058 22.559 48.3296 21.913 48.0212L15.3043 44.5406C14.3106 44.0559 14.8075 43.8797 15.1056 43.7916C16.4472 43.3951 16.6957 43.307 18.087 42.602C18.236 42.5139 18.4348 42.558 18.5839 42.6461L23.6522 45.3336C23.8509 45.4217 24.0994 45.4217 24.2484 45.3336L44.0745 35.1562C44.2733 35.0681 44.3727 34.8918 44.3727 34.6715V14.3607C44.3727 14.1404 44.2733 13.9642 44.0745 13.8761L24.2484 3.74268C24.0497 3.65457 23.8012 3.65457 23.6522 3.74268L3.82609 13.8761C3.62733 13.9642 3.52795 14.1845 3.52795 14.3607V34.6715C3.52795 34.8478 3.62733 35.0681 3.82609 35.1562L9.24224 37.9319C12.1739 39.2536 14.0124 37.7116 14.0124 36.1695V16.123C14.0124 15.8587 14.2609 15.5943 14.6087 15.5943H17.1429C17.441 15.5943 17.7391 15.8146 17.7391 16.123V36.1695C17.7391 39.6501 15.6025 41.6768 11.8758 41.6768C10.7329 41.6768 9.83851 41.6768 7.30435 40.5753L2.08696 37.9319C0.795031 37.271 0 36.0373 0 34.7156V14.4048C0 13.083 0.795031 11.8494 2.08696 11.1885L21.913 1.01107C23.1553 0.394258 24.8447 0.394258 26.087 1.01107L45.913 11.1885C47.205 11.8494 48 13.083 48 14.4048V34.7156C48 36.0373 47.205 37.271 45.913 37.9319L26.087 48.1093C25.441 48.3736 24.6957 48.5058 24 48.5058ZM30.1118 34.5394C21.4161 34.5394 19.6273 31.0147 19.6273 28.0188C19.6273 27.7544 19.8758 27.4901 20.2236 27.4901H22.8075C23.1056 27.4901 23.354 27.6663 23.354 27.9306C23.7516 30.2657 24.8944 31.4112 30.1615 31.4112C34.3354 31.4112 36.1242 30.5741 36.1242 28.5915C36.1242 27.446 35.6273 26.6089 29.118 26.0361C23.7019 25.5515 20.323 24.4941 20.323 20.661C20.323 17.0923 23.7019 14.9775 29.3665 14.9775C35.7267 14.9775 38.8571 16.9161 39.2547 21.1457C39.2547 21.2778 39.205 21.41 39.1056 21.5422C39.0062 21.6303 38.8571 21.7184 38.7081 21.7184H36.1242C35.8758 21.7184 35.6273 21.5422 35.5776 21.3219C34.9814 18.8987 33.441 18.1057 29.3665 18.1057C24.795 18.1057 24.2484 19.5155 24.2484 20.5729C24.2484 21.8506 24.8944 22.2471 31.0559 22.9521C37.1677 23.657 40.0497 24.6703 40.0497 28.4593C40 32.3365 36.4224 34.5394 30.1118 34.5394Z" fill="#539E43"/>
</g>
<defs>
<clipPath id="clip0_43_11">
<rect width="48" height="48.0465" fill="white" transform="translate(0 0.548462)"/>
</clipPath>
</defs>
</svg>
