<svg width="42" height="43" viewBox="0 0 42 43" fill="none" xmlns="http://www.w3.org/2000/svg">
<g clip-path="url(#clip0_39_95)">
<path d="M24.4125 21.5717C24.4125 23.4598 22.8863 24.9875 21 24.9875C19.1137 24.9875 17.5875 23.4598 17.5875 21.5717C17.5875 19.6835 19.1137 18.1559 21 18.1559C22.8863 18.1559 24.4125 19.6835 24.4125 21.5717Z" fill="#8BB7F0"/>
<path d="M21 25.2503C18.974 25.2503 17.325 23.6002 17.325 21.5717C17.325 19.5433 18.974 17.8932 21 17.8932C23.026 17.8932 24.675 19.5433 24.675 21.5717C24.675 23.6002 23.026 25.2503 21 25.2503ZM21 18.4187C19.2628 18.4187 17.85 19.8328 17.85 21.5717C17.85 23.3107 19.2628 24.7248 21 24.7248C22.7372 24.7248 24.15 23.3107 24.15 21.5717C24.15 19.8328 22.7372 18.4187 21 18.4187Z" fill="#4E7AB5"/>
<path d="M12.8489 40.2287C11.9506 40.2287 11.1326 40.0227 10.4171 39.617C9.22006 38.9375 8.39266 37.7667 7.95691 36.1381C7.45029 34.2426 7.51066 31.7249 8.13121 28.8451C3.12691 27.122 0.262512 24.4781 0.262512 21.5715C0.262512 18.6644 3.12639 16.0211 8.13069 14.2985C7.51014 11.4182 7.44924 8.90049 7.95586 7.00498C8.39161 5.37591 9.21901 4.20508 10.4155 3.52612C11.1305 3.12043 11.949 2.91443 12.8473 2.91443C15.151 2.91443 18.0401 4.34907 21.0011 6.95979C23.9621 4.35169 26.8501 2.91811 29.1512 2.91811C30.0494 2.91811 30.8674 3.12411 31.583 3.5298C32.7784 4.20823 33.6063 5.37696 34.0421 7.00393C34.5492 8.89892 34.4883 11.4172 33.8672 14.298C38.8726 16.0206 41.7375 18.6644 41.7375 21.5715C41.7375 24.4787 38.8726 27.1225 33.8672 28.8456C34.4878 31.7259 34.5487 34.2437 34.0415 36.1386C33.6058 37.7661 32.7789 38.9349 31.5845 39.6133C30.8684 40.019 30.05 40.225 29.1522 40.225C26.8496 40.225 23.9605 38.7914 21.0005 36.1844C18.0395 38.7946 15.151 40.2287 12.8489 40.2287ZM10.1519 29.4573C9.63166 31.9361 9.57339 34.0539 9.98604 35.5947C10.2706 36.6594 10.7636 37.3978 11.4529 37.7887C11.8482 38.0131 12.3181 38.1272 12.8489 38.1272C14.6307 38.1272 16.9764 36.9279 19.4749 34.7445C18.2228 33.4822 17.0006 32.0533 15.8377 30.4926C13.8264 30.274 11.9154 29.9261 10.1519 29.4573ZM22.5257 34.7434C25.0236 36.9248 27.3698 38.123 29.1517 38.1235C29.6825 38.1235 30.1523 38.0094 30.5487 37.785C31.2359 37.3951 31.7279 36.6584 32.0119 35.5953C32.4245 34.0534 32.3668 31.9361 31.8465 29.4578C30.0815 29.9266 28.1699 30.2745 26.1592 30.4931C24.9968 32.0539 23.7762 33.4822 22.5257 34.7434ZM18.6722 30.7117C19.4345 31.645 20.2146 32.5158 21 33.3077C21.7833 32.5163 22.564 31.6455 23.3258 30.7117C22.543 30.749 21.7634 30.7679 21 30.7679C20.2361 30.7679 19.456 30.749 18.6722 30.7117ZM16.9832 28.4972C18.2931 28.6092 19.6439 28.6659 21 28.6659C22.3571 28.6659 23.7064 28.6092 25.0142 28.4977C25.7943 27.4026 26.5382 26.2549 27.2265 25.0846C27.8922 23.9521 28.5185 22.7702 29.0887 21.571C28.5201 20.375 27.8943 19.1936 27.227 18.0585C26.5403 16.8908 25.7964 15.7431 25.0142 14.6453C23.7074 14.5339 22.3582 14.4772 21 14.4772C19.6413 14.4772 18.2915 14.5339 16.9853 14.6459C16.2031 15.7421 15.4581 16.8898 14.7704 18.0591C14.1036 19.1936 13.4778 20.375 12.9087 21.5726C13.4768 22.7676 14.1026 23.9489 14.7698 25.0851C15.4544 26.2491 16.1984 27.3963 16.9832 28.4972ZM30.1828 24.083C29.8121 24.7903 29.4278 25.484 29.0357 26.1503C28.6403 26.824 28.2198 27.4998 27.783 28.1661C29.0294 27.9738 30.2216 27.7273 31.3378 27.4304C31.028 26.3537 30.6401 25.2307 30.1828 24.083ZM10.6596 27.4299C11.7763 27.7263 12.968 27.9733 14.2128 28.1656C13.7734 27.4951 13.3529 26.8187 12.9602 26.1503C12.569 25.4845 12.1842 24.7919 11.8141 24.0845C11.3589 25.227 10.9715 26.3489 10.6596 27.4299ZM31.4034 21.5715C32.2056 23.3535 32.8592 25.115 33.3501 26.8145C37.2362 25.4461 39.6375 23.4497 39.6375 21.5715C39.6375 19.6934 37.2362 17.697 33.3501 16.3286C32.8603 18.028 32.2061 19.7895 31.4034 21.5715ZM8.64781 16.3296C4.76334 17.6975 2.36251 19.6939 2.36251 21.5715C2.36251 23.4497 4.76334 25.4461 8.64886 26.814C9.13921 25.114 9.79284 23.3525 10.594 21.5726C9.79231 19.7922 9.13869 18.0307 8.64781 16.3296ZM10.6591 15.7132C10.9709 16.7926 11.3584 17.9151 11.8141 19.0596C12.1837 18.3544 12.568 17.6612 12.9607 16.9933C13.3555 16.3212 13.776 15.6454 14.2144 14.9775C12.968 15.1693 11.7763 15.4163 10.6591 15.7132ZM27.7841 14.9769C28.2235 15.648 28.644 16.3238 29.0367 16.9933C29.4284 17.6591 29.8132 18.3523 30.1838 19.0596C30.6401 17.9156 31.0275 16.7931 31.3394 15.7127C30.2211 15.4157 29.0294 15.1688 27.7841 14.9769ZM12.8473 5.01646C12.3165 5.01646 11.8472 5.12997 11.4524 5.35489C10.7636 5.74587 10.2701 6.48421 9.98499 7.54889C9.57286 9.09125 9.63061 11.2085 10.1514 13.6863C11.9154 13.2175 13.8275 12.8691 15.8393 12.6505C17.0032 11.0892 18.2254 9.66143 19.4759 8.40021C16.9769 6.21567 14.6297 5.01646 12.8473 5.01646ZM26.1597 12.65C28.1705 12.8686 30.082 13.2165 31.847 13.6852C32.3678 11.2069 32.4261 9.08915 32.0129 7.54731C31.7284 6.48473 31.2359 5.74797 30.5482 5.35804C30.1523 5.13365 29.6825 5.01961 29.1512 5.01961C27.3698 5.01961 25.0247 6.2183 22.5262 8.40021C23.7757 9.6609 24.9968 11.0892 26.1597 12.65ZM21 12.3752C21.7634 12.3752 22.543 12.3941 23.3263 12.4314C22.565 11.4991 21.7849 10.6289 21.0011 9.83642C20.2151 10.6299 19.4355 11.5002 18.6743 12.4314C19.457 12.3941 20.2367 12.3752 21 12.3752Z" fill="#8BB7F0"/>
<path d="M12.8473 3.17738C15.2066 3.17738 18.0952 4.70661 21.0016 7.31156C23.9074 4.70872 26.7944 3.18106 29.1517 3.18106C30.0037 3.18106 30.7786 3.3755 31.4543 3.7586C32.5862 4.40077 33.3716 5.51537 33.7885 7.07245C34.3539 9.13087 34.2352 11.6654 33.5606 14.4716C38.4022 16.0907 41.475 18.6452 41.475 21.5717C41.475 24.4983 38.4022 27.0528 33.5601 28.6724C34.2641 31.7062 34.3822 34.309 33.7879 36.071C33.3711 37.6276 32.5862 38.7427 31.4554 39.3849C30.7786 39.7685 30.1639 39.9645 29.3123 39.9645C29.3118 39.9645 29.0939 39.9645 29.0934 39.9645C26.7351 39.9645 23.9053 38.4353 21 35.8335C18.0941 38.4379 15.2066 39.9661 12.8483 39.9661C11.9962 39.9661 11.2213 39.7717 10.5457 39.3886C9.41272 38.7448 8.6268 37.6286 8.21047 36.0705C7.58572 34.1172 7.71172 31.5496 8.43832 28.6719C3.5973 27.0523 0.525 24.4983 0.525 21.5717C0.525 18.6457 3.5973 16.0912 8.4378 14.4716C8.07712 12.8641 7.84665 11.3716 7.83877 10.0106C7.83247 8.93538 7.97895 7.93534 8.20995 7.07298C8.6268 5.51432 9.4122 4.39814 10.5451 3.75492C11.2203 3.3713 11.9952 3.17738 12.8473 3.17738ZM9.95295 14.0118C11.7784 13.5099 13.8054 13.1305 15.9815 12.8993C17.2321 11.2124 18.5409 9.69579 19.8592 8.38832C17.3014 6.10446 14.8108 4.75338 12.8473 4.75338C12.2703 4.75338 11.7579 4.87845 11.3227 5.12597C10.5703 5.55321 10.0354 6.34515 9.7314 7.48077C9.28095 9.16345 9.38332 11.4378 9.95295 14.0118ZM32.0455 14.0113C32.6151 11.4373 32.7175 9.1624 32.267 7.47972C31.9636 6.3462 31.4286 5.55583 30.6778 5.12965C30.2421 4.88213 29.7281 4.75706 29.1517 4.75706C27.1897 4.75706 24.7007 6.10657 22.1434 8.38832C23.4612 9.69579 24.7684 11.2124 26.0179 12.8988C28.193 13.13 30.22 13.5094 32.0455 14.0113ZM18.1004 12.7253C19.0465 12.6691 19.9951 12.6202 20.9816 12.6202C21.9681 12.6202 22.953 12.6696 23.899 12.7253C22.9498 11.5277 21.9754 10.4336 21.0005 9.46509C20.0256 10.4336 19.0507 11.5277 18.1004 12.7253ZM21 28.9289C22.4495 28.9289 23.8371 28.8653 25.1569 28.7491C25.9544 27.6366 26.7256 26.4553 27.4522 25.2182C28.1626 24.0101 28.8052 22.7872 29.379 21.5717C28.8052 20.3562 28.1626 19.1339 27.4528 17.9263C26.7256 16.6887 25.9549 15.5079 25.1569 14.3954C23.8376 14.2782 22.45 14.2146 21 14.2146C19.5499 14.2146 18.1618 14.2782 16.842 14.3949C16.0435 15.5074 15.2717 16.6887 14.5446 17.9258C13.8348 19.1339 13.1922 20.3568 12.6184 21.5723C13.1922 22.7878 13.8343 24.0101 14.5441 25.2177C15.2712 26.4548 16.0424 27.6361 16.8404 28.7486C18.1608 28.8653 19.5494 28.9289 21 28.9289ZM30.2116 19.6867C30.8023 18.2631 31.291 16.8653 31.6638 15.5284C30.3235 15.1595 28.843 14.8547 27.2391 14.6314C27.7788 15.4338 28.3043 16.2657 28.8099 17.1265C29.3107 17.9773 29.7764 18.8328 30.2116 19.6867ZM11.7857 19.6873C12.2204 18.8333 12.6866 17.9778 13.1864 17.1265C13.6925 16.2657 14.2186 15.4343 14.7588 14.6319C13.1549 14.8547 11.6744 15.16 10.3341 15.5289C10.7068 16.8658 11.1956 18.2631 11.7857 19.6873ZM33.1737 27.1537C37.4136 25.7159 39.9 23.6034 39.9 21.5717C39.9 19.5401 37.4136 17.4276 33.1737 15.9898C32.6734 17.7792 31.9825 19.6594 31.1157 21.5712C31.9825 23.4835 32.6734 25.3638 33.1737 27.1537ZM8.82525 27.1532C9.32505 25.3643 10.0154 23.4841 10.8822 21.5728C10.0154 19.661 9.32452 17.7802 8.82472 15.9908C4.58535 17.4286 2.1 19.5407 2.1 21.5717C2.1 23.6034 4.58587 25.7154 8.82525 27.1532ZM27.2391 28.5121C28.843 28.2893 30.3235 27.9845 31.6638 27.6151C31.2905 26.2782 30.8018 24.8803 30.2116 23.4562C29.7764 24.3102 29.3102 25.1657 28.8099 26.017C28.3043 26.8778 27.7788 27.7097 27.2391 28.5121ZM14.7572 28.5116C14.2175 27.7092 13.692 26.8778 13.1859 26.0175C12.6861 25.1667 12.2204 24.3117 11.7857 23.4583C11.1956 24.8814 10.7074 26.2787 10.3346 27.6151C11.6744 27.9835 13.1544 28.2883 14.7572 28.5116ZM12.8489 38.3896C14.8118 38.3896 17.3014 37.039 19.8586 34.7562C18.5393 33.4482 17.231 31.9311 15.9799 30.2437C13.8049 30.013 11.7789 29.6336 9.954 29.1317C9.3849 31.7056 9.28253 33.98 9.73245 35.6627C10.0359 36.7978 10.5714 37.5898 11.3232 38.017C11.7579 38.2645 12.2719 38.3896 12.8489 38.3896ZM29.1517 38.3864C29.7286 38.3864 30.2416 38.2614 30.6778 38.0138C31.4286 37.5877 31.9625 36.7973 32.2654 35.6632C32.7159 33.98 32.6135 31.7056 32.0444 29.1322C30.219 29.6341 28.1925 30.0135 26.0169 30.2442C24.7674 31.9311 23.4596 33.4477 22.1419 34.7557C24.6991 37.0364 27.1887 38.3859 29.1517 38.3864ZM21 33.6795C21.9749 32.7104 22.9493 31.6158 23.899 30.4182C22.9535 30.4744 22.0306 30.5931 21.0436 30.5931C20.056 30.5931 19.0449 30.4744 18.0988 30.4182C19.0491 31.6163 20.0245 32.7109 21 33.6795ZM12.6609 2.69129C11.7164 2.69129 11.0413 2.86891 10.2863 3.2972C9.02685 4.01242 8.15745 5.23685 7.7028 6.93687C7.1988 8.82187 7.24237 11.2996 7.8267 14.1263C2.84497 15.8905 0 18.5895 0 21.5717C0 24.5545 2.8455 27.253 7.82722 29.0171C7.2429 31.8439 7.19932 34.3216 7.70385 36.2066C8.15797 37.9056 9.02685 39.13 10.2874 39.8463C11.0434 40.2751 11.9516 40.4575 12.8956 40.4575C15.2512 40.4575 18.0159 39.1253 21.0005 36.534C23.9846 39.1227 26.796 40.4879 29.1511 40.4885C30.0956 40.4885 30.9577 40.2714 31.7137 39.8426C32.9721 39.1284 33.8404 37.9056 34.2946 36.2077C34.7991 34.3222 34.7555 31.8444 34.1712 29.0182C39.154 27.2535 42 24.5545 42 21.5717C42 18.589 39.1545 15.89 34.1717 14.1258C34.7566 11.2986 34.7996 8.82082 34.2951 6.93582C33.8404 5.2379 32.9716 4.01504 31.7126 3.30088C30.9571 2.87259 30.0951 2.65503 29.1511 2.65503C26.7965 2.65503 23.9857 4.02083 21.001 6.61053C18.0159 4.01872 15.1914 2.68971 12.8352 2.68971L12.6609 2.69129ZM10.353 13.3617C10.1104 12.1405 9.9477 10.9959 9.93877 9.99217C9.9309 9.0883 10.0548 8.30161 10.238 7.61635C10.5042 6.62209 10.9562 5.93788 11.5815 5.58264C11.9364 5.38084 12.369 5.24421 12.8536 5.24421C14.5236 5.24421 16.7213 6.38877 19.0921 8.41512C17.9261 9.6096 16.7863 10.9475 15.6975 12.4011C13.8154 12.6113 12.0209 12.9334 10.353 13.3617ZM22.9099 8.41617C25.2803 6.39139 27.4832 5.28257 29.1511 5.28257C29.6362 5.28257 30.0631 5.38504 30.4185 5.58684C31.0427 5.94103 31.4942 6.62367 31.7599 7.61583C32.2187 9.09671 32.1594 11.0653 31.6454 13.3612C29.9775 12.9334 28.1836 12.6108 26.302 12.4016C25.2136 10.9486 24.0749 9.61065 22.9099 8.41617ZM19.2533 12.1441C19.8287 11.461 20.413 10.8146 21.0005 10.2113C21.588 10.8146 22.1718 11.461 22.7467 12.1441C22.1592 12.1231 21.5749 12.1126 21 12.1126C20.4251 12.1126 19.8413 12.1231 19.2533 12.1441ZM17.1281 14.8978C18.3907 14.7932 19.6917 14.7186 21 14.7186C22.3078 14.7186 23.6087 14.7932 24.8708 14.8978C25.6226 15.9588 26.3387 17.066 27.0002 18.1922C27.6418 19.2842 28.246 20.4198 28.7973 21.5712C28.2455 22.7231 27.6412 23.8593 26.9997 24.9513C26.3377 26.078 25.6221 27.1847 24.8703 28.2457C23.6087 28.3503 22.3078 28.4906 21 28.4906C19.6912 28.4906 18.3897 28.3498 17.1266 28.2452C16.3742 27.1847 15.6581 26.0775 14.9961 24.9508C14.3545 23.8593 13.7508 22.7237 13.1995 21.5717C13.7508 20.4198 14.3551 19.2837 14.9966 18.1917C15.6592 17.0655 16.3758 15.9583 17.1281 14.8978ZM30.1465 18.4313C29.8583 17.8963 29.5627 17.3708 29.263 16.86C28.9637 16.3508 28.6503 15.8395 28.3258 15.3313C29.2572 15.49 30.1555 15.6797 31.0107 15.8989C30.7655 16.7218 30.4762 17.5689 30.1465 18.4313ZM10.9872 15.8989C11.8424 15.6797 12.7407 15.49 13.672 15.3313C13.3471 15.8395 13.0336 16.3508 12.7344 16.8595C12.4346 17.3703 12.139 17.8958 11.8508 18.4308C11.5211 17.5695 11.2324 16.7224 10.9872 15.8989ZM31.6916 21.5712C32.4345 19.9096 33.0498 18.2647 33.5239 16.6703C37.1479 17.9941 39.375 19.8486 39.375 21.5717C39.375 23.2949 37.1479 25.1494 33.5239 26.4732C33.0493 24.8782 32.4345 23.2329 31.6916 21.5712ZM8.47455 26.4726C4.85152 25.1489 2.625 23.2944 2.625 21.5717C2.625 19.8491 4.85153 17.9946 8.47402 16.6709C8.9481 18.2658 9.56287 19.9106 10.3057 21.5723C9.5634 23.2334 8.94862 24.8782 8.47455 26.4726ZM28.3253 27.8127C28.6498 27.304 28.9637 26.7927 29.2624 26.284C29.5627 25.7732 29.8583 25.2472 30.1465 24.7122C30.4762 25.5745 30.765 26.4222 31.0107 27.2457C30.1549 27.4637 29.2567 27.654 28.3253 27.8127ZM10.9877 27.2446C11.2329 26.4217 11.5216 25.5751 11.8508 24.7138C12.1385 25.2482 12.4341 25.7737 12.7339 26.284C13.0326 26.7927 13.346 27.3035 13.671 27.8122C12.7402 27.6529 11.8424 27.4632 10.9877 27.2446ZM12.8489 37.8641C12.3637 37.8641 11.9374 37.7616 11.582 37.5598C10.9573 37.2046 10.5052 36.5209 10.2396 35.5266C9.80332 34.0315 9.85267 32.0625 10.354 29.7812C12.0215 30.209 13.8148 30.5317 15.6959 30.7408C16.7853 32.1944 17.9251 33.5328 19.0916 34.7284C16.7213 36.7553 14.5178 37.8646 12.8489 37.8641ZM26.3014 30.7419C28.183 30.5322 29.977 30.2101 31.6449 29.7823C32.225 32.2732 32.2707 34.2586 31.7588 35.5271C31.4937 36.5198 31.0427 37.2025 30.419 37.5561C30.0631 37.7579 29.6368 37.8604 29.1522 37.8604V38.3859L29.1517 37.8604C27.4822 37.8604 25.2787 36.7516 22.9089 34.7278C24.0744 33.5334 25.2131 32.1954 26.3014 30.7419ZM21 32.9332C20.412 32.33 19.8271 31.6831 19.2517 30.9994C19.8397 31.0204 20.4246 31.0309 21 31.0309C21.5749 31.0309 22.1592 31.0204 22.7467 30.9994C22.1718 31.6831 21.5875 32.33 21 32.9332Z" fill="#4E7AB5"/>
</g>
<defs>
<clipPath id="clip0_39_95">
<rect width="42" height="42.0406" fill="white" transform="translate(0 0.551392)"/>
</clipPath>
</defs>
</svg>
