<svg width="48" height="49" viewBox="0 0 48 49" fill="none" xmlns="http://www.w3.org/2000/svg">
<path fill-rule="evenodd" clip-rule="evenodd" d="M24.042 4.58728C35.065 4.58728 44 13.5309 44 24.5646C44 35.5973 35.065 44.542 24.042 44.542C13.02 44.542 4.08398 35.5983 4.08398 24.5646C4.08498 13.5309 13.02 4.58728 24.042 4.58728Z" fill="#F06292"/>
<path d="M36.561 13.1376C35.657 9.58912 29.78 8.42299 24.218 10.4009C20.908 11.578 17.324 13.4258 14.747 15.8382C11.683 18.7069 11.195 21.2034 11.396 22.2464C12.106 25.9269 17.145 28.3333 19.216 30.119V30.13C18.605 30.4313 14.135 32.6955 13.089 35.0107C11.985 37.4531 13.265 39.2058 14.112 39.442C16.737 40.1727 19.43 38.8585 20.878 36.6974C22.275 34.6113 22.159 31.9187 21.552 30.5784C22.389 30.3572 23.366 30.2581 24.606 30.4033C28.107 30.8127 28.794 33.0008 28.662 33.9167C28.531 34.8326 27.796 35.336 27.551 35.4882C27.305 35.6403 27.231 35.6934 27.251 35.8055C27.281 35.9697 27.394 35.9637 27.604 35.9286C27.892 35.8796 29.442 35.1839 29.509 33.4933C29.593 31.3472 27.539 28.9469 23.901 29.0089C22.403 29.0349 21.461 29.1771 20.78 29.4313C20.73 29.3743 20.678 29.3172 20.626 29.2602C18.377 26.8578 14.219 25.1592 14.395 21.9301C14.459 20.7559 14.867 17.6649 22.384 13.9153C28.542 10.8433 33.472 11.6892 34.324 13.562C35.541 16.2386 31.689 21.2124 25.294 21.9301C22.857 22.2033 21.574 21.2584 21.255 20.9061C20.919 20.5357 20.869 20.5187 20.744 20.5888C20.54 20.7019 20.669 21.0292 20.744 21.2244C20.935 21.7219 21.719 22.6037 23.054 23.0431C24.229 23.4295 27.09 23.6407 30.55 22.3014C34.424 20.8 37.45 16.6259 36.561 13.1376ZM20.076 31.2191C20.366 32.2941 20.334 33.2971 20.035 34.205C20.002 34.306 19.965 34.4051 19.925 34.5042C19.885 34.6023 19.842 34.7004 19.796 34.7965C19.565 35.277 19.254 35.7264 18.874 36.1418C17.714 37.4081 16.094 37.8865 15.4 37.4831C14.65 37.0477 15.026 35.263 16.37 33.8396C17.816 32.3091 19.897 31.3252 19.897 31.3252L19.894 31.3192C19.954 31.2861 20.015 31.2531 20.076 31.2191Z" fill="white"/>
</svg>
