<svg width="176" height="48" viewBox="0 0 176 48" fill="none" xmlns="http://www.w3.org/2000/svg">
<path d="M6 42V6H42V42H6Z" fill="#FFD600"/>
<path d="M27.205 34.947C27.897 36.071 28.649 37.148 30.242 37.148C31.58 37.148 32.282 36.483 32.282 35.563C32.282 34.462 31.556 34.071 30.084 33.43L29.277 33.086C26.948 32.098 25.399 30.86 25.399 28.245C25.399 25.835 27.244 24.001 30.127 24.001C32.18 24.001 33.655 24.712 34.719 26.574L32.205 28.181C31.652 27.193 31.054 26.804 30.127 26.804C29.181 26.804 28.582 27.401 28.582 28.181C28.582 29.145 29.182 29.535 30.567 30.132L31.374 30.476C34.119 31.645 35.667 32.839 35.667 35.523C35.667 38.415 33.383 40 30.317 40C27.318 40 25.615 38.495 24.667 36.632L27.205 34.947ZM15.619 35.029C16.125 35.935 16.894 36.632 18 36.632C19.058 36.632 19.667 36.214 19.667 34.589V24H23V35.101C23 38.468 21.047 40 18.195 40C15.618 40 13.758 38.254 13 36.632L15.619 35.029Z" fill="#000001"/>
<path d="M58.7212 15.272V27.632C58.7212 29.008 58.2972 30.112 57.4492 30.944C56.6012 31.76 55.4812 32.168 54.0892 32.168C52.6812 32.168 51.5532 31.752 50.7052 30.92C49.8572 30.072 49.4332 28.92 49.4332 27.464H51.6172C51.6332 28.28 51.8412 28.944 52.2412 29.456C52.6572 29.968 53.2732 30.224 54.0892 30.224C54.9052 30.224 55.5132 29.984 55.9132 29.504C56.3132 29.008 56.5132 28.384 56.5132 27.632V15.272H58.7212ZM62.2078 25.376C62.2078 24.032 62.4798 22.856 63.0238 21.848C63.5678 20.824 64.3118 20.032 65.2558 19.472C66.2158 18.912 67.2798 18.632 68.4478 18.632C69.5998 18.632 70.5998 18.88 71.4478 19.376C72.2958 19.872 72.9278 20.496 73.3438 21.248V18.848H75.5518V32H73.3438V29.552C72.9118 30.32 72.2638 30.96 71.3998 31.472C70.5518 31.968 69.5598 32.216 68.4238 32.216C67.2558 32.216 66.1998 31.928 65.2558 31.352C64.3118 30.776 63.5678 29.968 63.0238 28.928C62.4798 27.888 62.2078 26.704 62.2078 25.376ZM73.3438 25.4C73.3438 24.408 73.1438 23.544 72.7438 22.808C72.3438 22.072 71.7998 21.512 71.1118 21.128C70.4398 20.728 69.6958 20.528 68.8798 20.528C68.0638 20.528 67.3198 20.72 66.6478 21.104C65.9758 21.488 65.4398 22.048 65.0398 22.784C64.6398 23.52 64.4398 24.384 64.4398 25.376C64.4398 26.384 64.6398 27.264 65.0398 28.016C65.4398 28.752 65.9758 29.32 66.6478 29.72C67.3198 30.104 68.0638 30.296 68.8798 30.296C69.6958 30.296 70.4398 30.104 71.1118 29.72C71.7998 29.32 72.3438 28.752 72.7438 28.016C73.1438 27.264 73.3438 26.392 73.3438 25.4ZM84.1385 29.984L88.2185 18.848H90.5465L85.3865 32H82.8425L77.6825 18.848H80.0345L84.1385 29.984ZM91.8797 25.376C91.8797 24.032 92.1517 22.856 92.6957 21.848C93.2397 20.824 93.9837 20.032 94.9277 19.472C95.8877 18.912 96.9517 18.632 98.1197 18.632C99.2717 18.632 100.272 18.88 101.12 19.376C101.968 19.872 102.6 20.496 103.016 21.248V18.848H105.224V32H103.016V29.552C102.584 30.32 101.936 30.96 101.072 31.472C100.224 31.968 99.2317 32.216 98.0957 32.216C96.9277 32.216 95.8717 31.928 94.9277 31.352C93.9837 30.776 93.2397 29.968 92.6957 28.928C92.1517 27.888 91.8797 26.704 91.8797 25.376ZM103.016 25.4C103.016 24.408 102.816 23.544 102.416 22.808C102.016 22.072 101.472 21.512 100.784 21.128C100.112 20.728 99.3677 20.528 98.5517 20.528C97.7357 20.528 96.9917 20.72 96.3197 21.104C95.6477 21.488 95.1117 22.048 94.7117 22.784C94.3117 23.52 94.1117 24.384 94.1117 25.376C94.1117 26.384 94.3117 27.264 94.7117 28.016C95.1117 28.752 95.6477 29.32 96.3197 29.72C96.9917 30.104 97.7357 30.296 98.5517 30.296C99.3677 30.296 100.112 30.104 100.784 29.72C101.472 29.32 102.016 28.752 102.416 28.016C102.816 27.264 103.016 26.392 103.016 25.4ZM114.218 32.168C113.114 32.168 112.122 31.976 111.242 31.592C110.378 31.192 109.698 30.648 109.202 29.96C108.706 29.256 108.45 28.448 108.434 27.536H110.762C110.842 28.32 111.162 28.984 111.722 29.528C112.298 30.056 113.13 30.32 114.218 30.32C115.258 30.32 116.074 30.064 116.666 29.552C117.274 29.024 117.578 28.352 117.578 27.536C117.578 26.896 117.402 26.376 117.05 25.976C116.698 25.576 116.258 25.272 115.73 25.064C115.202 24.856 114.49 24.632 113.594 24.392C112.49 24.104 111.602 23.816 110.93 23.528C110.274 23.24 109.706 22.792 109.226 22.184C108.762 21.56 108.53 20.728 108.53 19.688C108.53 18.776 108.762 17.968 109.226 17.264C109.69 16.56 110.338 16.016 111.17 15.632C112.018 15.248 112.986 15.056 114.074 15.056C115.642 15.056 116.922 15.448 117.914 16.232C118.922 17.016 119.49 18.056 119.618 19.352H117.218C117.138 18.712 116.802 18.152 116.21 17.672C115.618 17.176 114.834 16.928 113.858 16.928C112.946 16.928 112.202 17.168 111.626 17.648C111.05 18.112 110.762 18.768 110.762 19.616C110.762 20.224 110.93 20.72 111.266 21.104C111.618 21.488 112.042 21.784 112.538 21.992C113.05 22.184 113.762 22.408 114.674 22.664C115.778 22.968 116.666 23.272 117.338 23.576C118.01 23.864 118.586 24.32 119.066 24.944C119.546 25.552 119.786 26.384 119.786 27.44C119.786 28.256 119.57 29.024 119.138 29.744C118.706 30.464 118.066 31.048 117.218 31.496C116.37 31.944 115.37 32.168 114.218 32.168ZM122.184 25.4C122.184 24.04 122.456 22.856 123 21.848C123.544 20.824 124.296 20.032 125.256 19.472C126.232 18.912 127.344 18.632 128.592 18.632C130.208 18.632 131.536 19.024 132.576 19.808C133.632 20.592 134.328 21.68 134.664 23.072H132.312C132.088 22.272 131.648 21.64 130.992 21.176C130.352 20.712 129.552 20.48 128.592 20.48C127.344 20.48 126.336 20.912 125.568 21.776C124.8 22.624 124.416 23.832 124.416 25.4C124.416 26.984 124.8 28.208 125.568 29.072C126.336 29.936 127.344 30.368 128.592 30.368C129.552 30.368 130.352 30.144 130.992 29.696C131.632 29.248 132.072 28.608 132.312 27.776H134.664C134.312 29.12 133.608 30.2 132.552 31.016C131.496 31.816 130.176 32.216 128.592 32.216C127.344 32.216 126.232 31.936 125.256 31.376C124.296 30.816 123.544 30.024 123 29C122.456 27.976 122.184 26.776 122.184 25.4ZM139.762 20.984C140.146 20.232 140.69 19.648 141.394 19.232C142.114 18.816 142.986 18.608 144.01 18.608V20.864H143.434C140.986 20.864 139.762 22.192 139.762 24.848V32H137.578V18.848H139.762V20.984ZM147.66 16.712C147.244 16.712 146.892 16.568 146.604 16.28C146.316 15.992 146.172 15.64 146.172 15.224C146.172 14.808 146.316 14.456 146.604 14.168C146.892 13.88 147.244 13.736 147.66 13.736C148.06 13.736 148.396 13.88 148.668 14.168C148.956 14.456 149.1 14.808 149.1 15.224C149.1 15.64 148.956 15.992 148.668 16.28C148.396 16.568 148.06 16.712 147.66 16.712ZM148.716 18.848V32H146.532V18.848H148.716ZM154.622 21.272C155.054 20.52 155.694 19.896 156.542 19.4C157.406 18.888 158.406 18.632 159.542 18.632C160.71 18.632 161.766 18.912 162.71 19.472C163.67 20.032 164.422 20.824 164.966 21.848C165.51 22.856 165.782 24.032 165.782 25.376C165.782 26.704 165.51 27.888 164.966 28.928C164.422 29.968 163.67 30.776 162.71 31.352C161.766 31.928 160.71 32.216 159.542 32.216C158.422 32.216 157.43 31.968 156.566 31.472C155.718 30.96 155.07 30.328 154.622 29.576V38.24H152.438V18.848H154.622V21.272ZM163.55 25.376C163.55 24.384 163.35 23.52 162.95 22.784C162.55 22.048 162.006 21.488 161.318 21.104C160.646 20.72 159.902 20.528 159.086 20.528C158.286 20.528 157.542 20.728 156.854 21.128C156.182 21.512 155.638 22.08 155.222 22.832C154.822 23.568 154.622 24.424 154.622 25.4C154.622 26.392 154.822 27.264 155.222 28.016C155.638 28.752 156.182 29.32 156.854 29.72C157.542 30.104 158.286 30.296 159.086 30.296C159.902 30.296 160.646 30.104 161.318 29.72C162.006 29.32 162.55 28.752 162.95 28.016C163.35 27.264 163.55 26.384 163.55 25.376ZM171.321 20.648V28.4C171.321 29.04 171.457 29.496 171.729 29.768C172.001 30.024 172.473 30.152 173.145 30.152H174.753V32H172.785C171.569 32 170.657 31.72 170.049 31.16C169.441 30.6 169.137 29.68 169.137 28.4V20.648H167.433V18.848H169.137V15.536H171.321V18.848H174.753V20.648H171.321Z" fill="#323232"/>
</svg>
